<svg xmlns="http://www.w3.org/2000/svg" xmlns:xlink="http://www.w3.org/1999/xlink" width="6912" zoomAndPan="magnify" viewBox="0 0 5184 2592.000001" height="3456" preserveAspectRatio="xMidYMid meet" version="1.0"><defs><g/><clipPath id="67218f8450"><path d="M 1 0 L 5183 0 L 5183 2591 L 1 2591 Z M 1 0 " clip-rule="nonzero"/></clipPath><clipPath id="449115873b"><path d="M 1814.496094 610.09375 L 3369.703125 610.09375 L 3369.703125 1981 L 1814.496094 1981 Z M 1814.496094 610.09375 " clip-rule="nonzero"/></clipPath><clipPath id="7bae46059f"><path d="M 1935.949219 610.09375 L 3248.050781 610.09375 C 3315.128906 610.09375 3369.503906 664.46875 3369.503906 731.546875 L 3369.503906 1859.453125 C 3369.503906 1926.53125 3315.128906 1980.90625 3248.050781 1980.90625 L 1935.949219 1980.90625 C 1868.871094 1980.90625 1814.496094 1926.53125 1814.496094 1859.453125 L 1814.496094 731.546875 C 1814.496094 664.46875 1868.871094 610.09375 1935.949219 610.09375 " clip-rule="nonzero"/></clipPath><clipPath id="efa2b97be9"><path d="M 2023.902344 648 L 3160.464844 648 L 3160.464844 1943 L 2023.902344 1943 Z M 2023.902344 648 " clip-rule="nonzero"/></clipPath></defs><g clip-path="url(#67218f8450)"><path fill="#ffffff" d="M 1 0 L 5183 0 L 5183 7787.996094 L 1 7787.996094 Z M 1 0 " fill-opacity="1" fill-rule="nonzero"/></g><path fill="#ffffff" d="M 1 0 L 5183 0 L 5183 2591 L 1 2591 Z M 1 0 " fill-opacity="1" fill-rule="nonzero"/><path fill="#ff1616" d="M 1 0 L 5183 0 L 5183 2591 L 1 2591 Z M 1 0 " fill-opacity="1" fill-rule="nonzero"/><g clip-path="url(#449115873b)"><g clip-path="url(#7bae46059f)"><path fill="#ffffff" d="M 1814.496094 610.09375 L 3369.703125 610.09375 L 3369.703125 1980.691406 L 1814.496094 1980.691406 Z M 1814.496094 610.09375 " fill-opacity="1" fill-rule="nonzero"/></g></g><path fill="#ff1616" d="M 2766.171875 1172.902344 L 2796.824219 1172.902344 C 2797.878906 1172.859375 2798.917969 1172.714844 2799.945312 1172.472656 C 2800.972656 1172.230469 2801.964844 1171.894531 2802.925781 1171.460938 C 2803.886719 1171.027344 2804.796875 1170.503906 2805.660156 1169.898438 C 2806.519531 1169.289062 2807.316406 1168.605469 2808.046875 1167.84375 C 2808.777344 1167.085938 2809.429688 1166.261719 2810 1165.375 C 2810.570312 1164.492188 2811.054688 1163.558594 2811.449219 1162.582031 C 2811.84375 1161.605469 2812.140625 1160.597656 2812.339844 1159.5625 C 2812.539062 1158.527344 2812.640625 1157.484375 2812.640625 1156.429688 C 2812.640625 1155.378906 2812.539062 1154.332031 2812.339844 1153.296875 C 2812.140625 1152.265625 2811.84375 1151.257812 2811.449219 1150.28125 C 2811.054688 1149.300781 2810.570312 1148.371094 2810 1147.484375 C 2809.429688 1146.601562 2808.777344 1145.777344 2808.046875 1145.015625 C 2807.316406 1144.257812 2806.519531 1143.570312 2805.660156 1142.964844 C 2804.796875 1142.355469 2803.886719 1141.835938 2802.925781 1141.402344 C 2801.964844 1140.96875 2800.972656 1140.632812 2799.945312 1140.386719 C 2798.917969 1140.144531 2797.878906 1140.003906 2796.824219 1139.960938 L 2766.171875 1139.960938 C 2765.632812 1139.957031 2765.09375 1139.984375 2764.554688 1140.035156 C 2764.019531 1140.089844 2763.484375 1140.167969 2762.953125 1140.269531 C 2762.425781 1140.375 2761.902344 1140.507812 2761.382812 1140.660156 C 2760.867188 1140.816406 2760.359375 1141 2759.859375 1141.207031 C 2759.359375 1141.410156 2758.875 1141.640625 2758.398438 1141.894531 C 2757.921875 1142.148438 2757.457031 1142.425781 2757.007812 1142.726562 C 2756.558594 1143.027344 2756.125 1143.347656 2755.707031 1143.691406 C 2755.292969 1144.03125 2754.890625 1144.394531 2754.507812 1144.773438 C 2754.128906 1145.15625 2753.765625 1145.554688 2753.421875 1145.972656 C 2753.082031 1146.390625 2752.757812 1146.824219 2752.460938 1147.273438 C 2752.160156 1147.722656 2751.882812 1148.183594 2751.628906 1148.660156 C 2751.375 1149.136719 2751.144531 1149.625 2750.9375 1150.125 C 2750.730469 1150.621094 2750.550781 1151.128906 2750.394531 1151.644531 C 2750.238281 1152.164062 2750.109375 1152.6875 2750.003906 1153.214844 C 2749.898438 1153.746094 2749.820312 1154.277344 2749.769531 1154.816406 C 2749.714844 1155.351562 2749.691406 1155.890625 2749.691406 1156.429688 C 2749.691406 1156.972656 2749.714844 1157.507812 2749.769531 1158.046875 C 2749.820312 1158.582031 2749.898438 1159.117188 2750.003906 1159.648438 C 2750.109375 1160.175781 2750.238281 1160.699219 2750.394531 1161.214844 C 2750.550781 1161.734375 2750.730469 1162.242188 2750.9375 1162.738281 C 2751.144531 1163.238281 2751.375 1163.726562 2751.628906 1164.203125 C 2751.882812 1164.679688 2752.160156 1165.140625 2752.460938 1165.589844 C 2752.757812 1166.039062 2753.082031 1166.472656 2753.421875 1166.886719 C 2753.765625 1167.304688 2754.128906 1167.707031 2754.507812 1168.085938 C 2754.890625 1168.46875 2755.292969 1168.832031 2755.707031 1169.171875 C 2756.125 1169.515625 2756.558594 1169.835938 2757.007812 1170.136719 C 2757.457031 1170.433594 2757.921875 1170.710938 2758.398438 1170.964844 C 2758.875 1171.21875 2759.359375 1171.449219 2759.859375 1171.65625 C 2760.359375 1171.863281 2760.867188 1172.042969 2761.382812 1172.199219 C 2761.902344 1172.355469 2762.425781 1172.488281 2762.953125 1172.589844 C 2763.484375 1172.695312 2764.019531 1172.773438 2764.554688 1172.828125 C 2765.09375 1172.878906 2765.632812 1172.902344 2766.171875 1172.902344 Z M 2842.851562 1172.902344 L 2873.503906 1172.902344 C 2874.558594 1172.859375 2875.597656 1172.714844 2876.625 1172.472656 C 2877.652344 1172.230469 2878.644531 1171.894531 2879.605469 1171.460938 C 2880.566406 1171.027344 2881.476562 1170.503906 2882.339844 1169.898438 C 2883.199219 1169.289062 2883.996094 1168.605469 2884.726562 1167.84375 C 2885.457031 1167.085938 2886.105469 1166.261719 2886.679688 1165.375 C 2887.25 1164.492188 2887.734375 1163.558594 2888.128906 1162.582031 C 2888.519531 1161.605469 2888.816406 1160.597656 2889.019531 1159.5625 C 2889.21875 1158.527344 2889.320312 1157.484375 2889.320312 1156.429688 C 2889.320312 1155.378906 2889.21875 1154.332031 2889.019531 1153.296875 C 2888.816406 1152.265625 2888.519531 1151.257812 2888.128906 1150.28125 C 2887.734375 1149.300781 2887.25 1148.371094 2886.679688 1147.484375 C 2886.105469 1146.601562 2885.457031 1145.777344 2884.726562 1145.015625 C 2883.996094 1144.257812 2883.199219 1143.570312 2882.339844 1142.964844 C 2881.476562 1142.355469 2880.566406 1141.835938 2879.605469 1141.402344 C 2878.644531 1140.96875 2877.652344 1140.632812 2876.625 1140.386719 C 2875.597656 1140.144531 2874.558594 1140.003906 2873.503906 1139.960938 L 2842.851562 1139.960938 C 2841.796875 1140.003906 2840.757812 1140.144531 2839.730469 1140.386719 C 2838.707031 1140.632812 2837.710938 1140.96875 2836.75 1141.402344 C 2835.789062 1141.835938 2834.878906 1142.355469 2834.015625 1142.964844 C 2833.15625 1143.570312 2832.359375 1144.257812 2831.628906 1145.015625 C 2830.898438 1145.777344 2830.25 1146.601562 2829.675781 1147.484375 C 2829.105469 1148.371094 2828.621094 1149.300781 2828.226562 1150.28125 C 2827.835938 1151.257812 2827.539062 1152.261719 2827.335938 1153.296875 C 2827.136719 1154.332031 2827.035156 1155.378906 2827.035156 1156.429688 C 2827.035156 1157.484375 2827.136719 1158.527344 2827.335938 1159.5625 C 2827.539062 1160.597656 2827.835938 1161.605469 2828.226562 1162.582031 C 2828.621094 1163.558594 2829.105469 1164.492188 2829.675781 1165.375 C 2830.25 1166.261719 2830.898438 1167.085938 2831.628906 1167.84375 C 2832.359375 1168.605469 2833.15625 1169.289062 2834.015625 1169.898438 C 2834.878906 1170.503906 2835.789062 1171.027344 2836.75 1171.460938 C 2837.710938 1171.894531 2838.707031 1172.230469 2839.730469 1172.472656 C 2840.757812 1172.714844 2841.796875 1172.859375 2842.851562 1172.902344 Z M 2919.53125 1172.902344 L 2950.183594 1172.902344 C 2950.722656 1172.902344 2951.261719 1172.878906 2951.800781 1172.828125 C 2952.339844 1172.773438 2952.871094 1172.695312 2953.402344 1172.589844 C 2953.929688 1172.488281 2954.453125 1172.355469 2954.972656 1172.199219 C 2955.488281 1172.042969 2955.996094 1171.863281 2956.496094 1171.65625 C 2956.996094 1171.449219 2957.480469 1171.21875 2957.957031 1170.964844 C 2958.433594 1170.710938 2958.898438 1170.433594 2959.347656 1170.136719 C 2959.796875 1169.835938 2960.230469 1169.515625 2960.648438 1169.171875 C 2961.066406 1168.832031 2961.464844 1168.46875 2961.847656 1168.085938 C 2962.226562 1167.707031 2962.589844 1167.304688 2962.933594 1166.886719 C 2963.273438 1166.472656 2963.597656 1166.039062 2963.894531 1165.589844 C 2964.195312 1165.140625 2964.472656 1164.675781 2964.726562 1164.203125 C 2964.980469 1163.726562 2965.210938 1163.238281 2965.417969 1162.738281 C 2965.625 1162.238281 2965.804688 1161.734375 2965.960938 1161.214844 C 2966.117188 1160.699219 2966.25 1160.175781 2966.351562 1159.648438 C 2966.457031 1159.117188 2966.535156 1158.582031 2966.589844 1158.046875 C 2966.640625 1157.507812 2966.664062 1156.972656 2966.664062 1156.429688 C 2966.664062 1155.890625 2966.640625 1155.351562 2966.589844 1154.816406 C 2966.535156 1154.277344 2966.457031 1153.746094 2966.351562 1153.214844 C 2966.25 1152.6875 2966.117188 1152.164062 2965.960938 1151.644531 C 2965.804688 1151.128906 2965.625 1150.621094 2965.417969 1150.121094 C 2965.210938 1149.625 2964.980469 1149.136719 2964.726562 1148.660156 C 2964.472656 1148.183594 2964.195312 1147.722656 2963.894531 1147.273438 C 2963.597656 1146.824219 2963.273438 1146.390625 2962.933594 1145.972656 C 2962.589844 1145.554688 2962.226562 1145.15625 2961.847656 1144.773438 C 2961.464844 1144.394531 2961.066406 1144.03125 2960.648438 1143.6875 C 2960.230469 1143.347656 2959.796875 1143.027344 2959.347656 1142.726562 C 2958.898438 1142.425781 2958.433594 1142.148438 2957.957031 1141.894531 C 2957.480469 1141.640625 2956.996094 1141.410156 2956.496094 1141.207031 C 2955.996094 1141 2955.488281 1140.816406 2954.972656 1140.660156 C 2954.453125 1140.503906 2953.929688 1140.375 2953.402344 1140.269531 C 2952.871094 1140.167969 2952.339844 1140.089844 2951.800781 1140.035156 C 2951.261719 1139.984375 2950.722656 1139.957031 2950.183594 1139.960938 L 2919.53125 1139.960938 C 2918.476562 1140.003906 2917.4375 1140.144531 2916.410156 1140.386719 C 2915.382812 1140.632812 2914.390625 1140.96875 2913.429688 1141.402344 C 2912.46875 1141.835938 2911.558594 1142.355469 2910.695312 1142.964844 C 2909.835938 1143.570312 2909.039062 1144.257812 2908.308594 1145.015625 C 2907.578125 1145.777344 2906.925781 1146.601562 2906.355469 1147.484375 C 2905.785156 1148.371094 2905.300781 1149.300781 2904.90625 1150.28125 C 2904.515625 1151.257812 2904.21875 1152.261719 2904.015625 1153.296875 C 2903.816406 1154.332031 2903.714844 1155.378906 2903.714844 1156.429688 C 2903.714844 1157.484375 2903.816406 1158.527344 2904.015625 1159.5625 C 2904.21875 1160.597656 2904.515625 1161.605469 2904.90625 1162.582031 C 2905.300781 1163.558594 2905.785156 1164.492188 2906.355469 1165.375 C 2906.925781 1166.261719 2907.578125 1167.085938 2908.308594 1167.84375 C 2909.039062 1168.605469 2909.835938 1169.289062 2910.695312 1169.898438 C 2911.558594 1170.503906 2912.46875 1171.027344 2913.429688 1171.460938 C 2914.390625 1171.894531 2915.382812 1172.230469 2916.410156 1172.472656 C 2917.4375 1172.714844 2918.476562 1172.859375 2919.53125 1172.902344 Z M 3026.917969 1139.960938 L 2996.265625 1139.960938 C 2995.210938 1140.003906 2994.171875 1140.144531 2993.144531 1140.386719 C 2992.121094 1140.632812 2991.125 1140.96875 2990.164062 1141.402344 C 2989.203125 1141.835938 2988.292969 1142.355469 2987.429688 1142.964844 C 2986.570312 1143.570312 2985.773438 1144.257812 2985.042969 1145.015625 C 2984.3125 1145.777344 2983.664062 1146.601562 2983.089844 1147.484375 C 2982.519531 1148.371094 2982.035156 1149.300781 2981.640625 1150.28125 C 2981.25 1151.257812 2980.953125 1152.261719 2980.753906 1153.296875 C 2980.550781 1154.332031 2980.453125 1155.378906 2980.453125 1156.429688 C 2980.453125 1157.484375 2980.550781 1158.527344 2980.75 1159.5625 C 2980.953125 1160.597656 2981.25 1161.605469 2981.640625 1162.582031 C 2982.035156 1163.558594 2982.519531 1164.492188 2983.089844 1165.375 C 2983.664062 1166.261719 2984.3125 1167.085938 2985.042969 1167.84375 C 2985.773438 1168.605469 2986.570312 1169.289062 2987.429688 1169.898438 C 2988.292969 1170.503906 2989.203125 1171.027344 2990.164062 1171.460938 C 2991.125 1171.894531 2992.121094 1172.230469 2993.144531 1172.472656 C 2994.171875 1172.714844 2995.210938 1172.859375 2996.265625 1172.902344 L 3026.917969 1172.902344 C 3027.972656 1172.859375 3029.011719 1172.714844 3030.039062 1172.472656 C 3031.066406 1172.230469 3032.058594 1171.894531 3033.019531 1171.460938 C 3033.980469 1171.027344 3034.890625 1170.503906 3035.753906 1169.898438 C 3036.613281 1169.289062 3037.410156 1168.605469 3038.140625 1167.84375 C 3038.871094 1167.085938 3039.523438 1166.261719 3040.09375 1165.375 C 3040.664062 1164.492188 3041.148438 1163.558594 3041.542969 1162.582031 C 3041.9375 1161.605469 3042.234375 1160.597656 3042.433594 1159.5625 C 3042.632812 1158.527344 3042.734375 1157.484375 3042.734375 1156.429688 C 3042.734375 1155.378906 3042.632812 1154.332031 3042.433594 1153.296875 C 3042.234375 1152.265625 3041.9375 1151.257812 3041.542969 1150.28125 C 3041.148438 1149.300781 3040.664062 1148.371094 3040.09375 1147.484375 C 3039.523438 1146.601562 3038.871094 1145.777344 3038.140625 1145.015625 C 3037.410156 1144.257812 3036.613281 1143.570312 3035.753906 1142.964844 C 3034.890625 1142.355469 3033.980469 1141.835938 3033.019531 1141.402344 C 3032.058594 1140.96875 3031.066406 1140.632812 3030.039062 1140.386719 C 3029.011719 1140.144531 3027.972656 1140.003906 3026.917969 1139.960938 Z M 2982.203125 1230.613281 L 2774.960938 1230.613281 C 2774.0625 1230.613281 2773.167969 1230.6875 2772.28125 1230.832031 C 2771.394531 1230.980469 2770.527344 1231.199219 2769.675781 1231.488281 C 2768.824219 1231.777344 2768.003906 1232.132812 2767.210938 1232.558594 C 2766.417969 1232.980469 2765.667969 1233.464844 2764.953125 1234.011719 C 2764.242188 1234.558594 2763.578125 1235.160156 2762.964844 1235.816406 C 2762.351562 1236.472656 2761.792969 1237.175781 2761.292969 1237.921875 C 2760.796875 1238.667969 2760.359375 1239.449219 2759.988281 1240.269531 C 2759.617188 1241.085938 2759.316406 1241.929688 2759.085938 1242.796875 L 2744.320312 1297.203125 C 2744.152344 1297.808594 2744.019531 1298.425781 2743.921875 1299.046875 C 2743.824219 1299.671875 2743.761719 1300.296875 2743.738281 1300.925781 C 2743.714844 1301.558594 2743.722656 1302.1875 2743.773438 1302.816406 C 2743.820312 1303.445312 2743.902344 1304.066406 2744.023438 1304.6875 C 2744.144531 1305.304688 2744.296875 1305.914062 2744.488281 1306.515625 C 2744.679688 1307.117188 2744.902344 1307.707031 2745.160156 1308.28125 C 2745.417969 1308.855469 2745.710938 1309.414062 2746.03125 1309.957031 C 2746.355469 1310.496094 2746.707031 1311.019531 2747.089844 1311.519531 C 2747.472656 1312.019531 2747.882812 1312.5 2748.320312 1312.953125 C 2748.757812 1313.40625 2749.222656 1313.832031 2749.710938 1314.234375 C 2750.195312 1314.632812 2750.707031 1315.003906 2751.234375 1315.347656 C 2751.765625 1315.6875 2752.3125 1315.996094 2752.878906 1316.277344 C 2753.445312 1316.554688 2754.023438 1316.800781 2754.621094 1317.011719 C 2755.214844 1317.222656 2755.816406 1317.398438 2756.433594 1317.542969 C 2757.046875 1317.683594 2757.667969 1317.789062 2758.292969 1317.859375 C 2758.921875 1317.929688 2759.550781 1317.964844 2760.179688 1317.960938 L 2967.367188 1317.90625 C 2974.792969 1317.90625 2981.316406 1312.957031 2983.300781 1305.777344 L 2998.066406 1251.371094 C 2998.234375 1250.761719 2998.367188 1250.148438 2998.464844 1249.523438 C 2998.5625 1248.902344 2998.621094 1248.273438 2998.644531 1247.644531 C 2998.671875 1247.015625 2998.660156 1246.386719 2998.613281 1245.757812 C 2998.566406 1245.128906 2998.480469 1244.503906 2998.359375 1243.886719 C 2998.242188 1243.265625 2998.085938 1242.65625 2997.894531 1242.054688 C 2997.707031 1241.457031 2997.480469 1240.867188 2997.222656 1240.292969 C 2996.964844 1239.71875 2996.675781 1239.160156 2996.351562 1238.617188 C 2996.027344 1238.074219 2995.675781 1237.554688 2995.292969 1237.050781 C 2994.910156 1236.550781 2994.5 1236.074219 2994.0625 1235.621094 C 2993.625 1235.167969 2993.160156 1234.738281 2992.675781 1234.339844 C 2992.1875 1233.9375 2991.679688 1233.570312 2991.148438 1233.226562 C 2990.617188 1232.886719 2990.070312 1232.574219 2989.503906 1232.296875 C 2988.9375 1232.019531 2988.359375 1231.773438 2987.765625 1231.5625 C 2987.171875 1231.351562 2986.566406 1231.171875 2985.953125 1231.03125 C 2985.335938 1230.890625 2984.714844 1230.785156 2984.089844 1230.714844 C 2983.460938 1230.644531 2982.835938 1230.609375 2982.203125 1230.613281 Z M 2954.78125 1285.015625 L 2781.722656 1285.015625 L 2787.601562 1263.554688 L 2960.632812 1263.554688 Z M 2954.78125 1285.015625 " fill-opacity="1" fill-rule="nonzero"/><g clip-path="url(#efa2b97be9)"><path fill="#ff1616" d="M 3160.394531 1438.957031 C 3162.699219 1309.007812 3115.566406 1227.703125 3102.558594 1207.828125 L 3102.558594 1100.171875 C 3102.558594 1099.628906 3102.535156 1099.09375 3102.480469 1098.554688 C 3102.429688 1098.019531 3102.351562 1097.484375 3102.246094 1096.953125 C 3102.140625 1096.425781 3102.011719 1095.902344 3101.855469 1095.386719 C 3101.699219 1094.867188 3101.519531 1094.359375 3101.3125 1093.863281 C 3101.105469 1093.363281 3100.875 1092.875 3100.621094 1092.398438 C 3100.367188 1091.921875 3100.089844 1091.460938 3099.789062 1091.011719 C 3099.488281 1090.5625 3099.167969 1090.128906 3098.828125 1089.714844 C 3098.484375 1089.296875 3098.121094 1088.894531 3097.738281 1088.515625 C 3097.359375 1088.132812 3096.957031 1087.769531 3096.539062 1087.429688 C 3096.125 1087.085938 3095.691406 1086.765625 3095.242188 1086.464844 C 3094.792969 1086.167969 3094.328125 1085.890625 3093.851562 1085.636719 C 3093.375 1085.382812 3092.886719 1085.152344 3092.390625 1084.945312 C 3091.890625 1084.738281 3091.382812 1084.558594 3090.867188 1084.402344 C 3090.347656 1084.246094 3089.824219 1084.113281 3089.296875 1084.011719 C 3088.765625 1083.90625 3088.230469 1083.828125 3087.695312 1083.773438 C 3087.15625 1083.722656 3086.617188 1083.699219 3086.078125 1083.699219 L 2708.882812 1083.640625 C 2708.34375 1083.640625 2707.804688 1083.667969 2707.265625 1083.71875 C 2706.730469 1083.769531 2706.195312 1083.847656 2705.667969 1083.953125 C 2705.136719 1084.058594 2704.613281 1084.1875 2704.097656 1084.34375 C 2703.578125 1084.5 2703.070312 1084.683594 2702.570312 1084.886719 C 2702.074219 1085.09375 2701.585938 1085.324219 2701.109375 1085.578125 C 2700.632812 1085.832031 2700.167969 1086.109375 2699.71875 1086.410156 C 2699.273438 1086.710938 2698.839844 1087.03125 2698.421875 1087.371094 C 2698.003906 1087.714844 2697.601562 1088.078125 2697.222656 1088.457031 C 2696.839844 1088.839844 2696.476562 1089.238281 2696.136719 1089.65625 C 2695.792969 1090.074219 2695.472656 1090.507812 2695.171875 1090.957031 C 2694.871094 1091.40625 2694.59375 1091.867188 2694.339844 1092.34375 C 2694.085938 1092.820312 2693.855469 1093.308594 2693.648438 1093.804688 C 2693.445312 1094.304688 2693.261719 1094.8125 2693.105469 1095.328125 C 2692.949219 1095.847656 2692.820312 1096.367188 2692.714844 1096.898438 C 2692.609375 1097.429688 2692.53125 1097.960938 2692.480469 1098.5 C 2692.425781 1099.035156 2692.402344 1099.574219 2692.402344 1100.113281 L 2692.402344 1207.828125 C 2687.566406 1215.179688 2678.058594 1231.046875 2668.117188 1254.660156 C 2633.789062 1233.949219 2597.941406 1216.324219 2560.574219 1201.785156 L 2521.199219 1117.078125 C 2524.082031 1115.316406 2526.902344 1113.464844 2529.664062 1111.523438 C 2532.429688 1109.582031 2535.125 1107.554688 2537.761719 1105.441406 C 2540.394531 1103.328125 2542.957031 1101.128906 2545.449219 1098.851562 C 2547.941406 1096.574219 2550.359375 1094.222656 2552.703125 1091.789062 C 2555.042969 1089.359375 2557.304688 1086.851562 2559.488281 1084.277344 C 2561.671875 1081.699219 2563.769531 1079.058594 2565.78125 1076.347656 C 2567.796875 1073.636719 2569.71875 1070.867188 2571.558594 1068.03125 C 2573.394531 1065.199219 2575.136719 1062.3125 2576.789062 1059.367188 C 2578.441406 1056.421875 2579.996094 1053.425781 2581.457031 1050.382812 C 2582.917969 1047.339844 2584.277344 1044.253906 2585.542969 1041.121094 C 2586.804688 1037.992188 2587.964844 1034.824219 2589.027344 1031.617188 C 2590.085938 1028.414062 2591.042969 1025.179688 2591.898438 1021.914062 C 2592.75 1018.644531 2593.5 1015.355469 2594.144531 1012.042969 C 2594.789062 1008.730469 2595.324219 1005.398438 2595.753906 1002.050781 C 2596.1875 998.703125 2596.507812 995.34375 2596.726562 991.976562 C 2596.941406 988.605469 2597.050781 985.234375 2597.050781 981.859375 L 2597.050781 863.433594 C 2630.503906 862.226562 2656.910156 858.375 2675.65625 851.742188 C 2707.503906 840.496094 2714.214844 822.648438 2714.214844 809.632812 C 2714.214844 767.144531 2636.15625 727.175781 2575.183594 726.78125 C 2570.730469 719.148438 2565.671875 711.9375 2560.007812 705.152344 C 2554.347656 698.367188 2548.160156 692.097656 2541.449219 686.34375 C 2537.902344 683.289062 2534.226562 680.398438 2530.425781 677.671875 C 2526.621094 674.945312 2522.703125 672.390625 2518.671875 670.011719 C 2514.640625 667.632812 2510.511719 665.4375 2506.285156 663.425781 C 2502.058594 661.414062 2497.75 659.59375 2493.359375 657.964844 C 2488.96875 656.339844 2484.519531 654.90625 2480 653.675781 C 2475.484375 652.445312 2470.921875 651.414062 2466.316406 650.589844 C 2461.707031 649.765625 2457.070312 649.144531 2452.40625 648.730469 C 2447.742188 648.320312 2443.070312 648.113281 2438.390625 648.117188 L 2402.855469 648.117188 C 2315.40625 648.117188 2244.28125 719.273438 2244.28125 806.679688 L 2244.28125 981.871094 C 2244.28125 1041.210938 2277.015625 1092.988281 2325.417969 1120.171875 L 2306.6875 1196.910156 L 2077.464844 1327.519531 C 2062.136719 1332.902344 2002.039062 1365.183594 2032.3125 1535.050781 C 2060.71875 1694.316406 2067.847656 1731.492188 2067.890625 1731.816406 C 2068.886719 1736.816406 2072.136719 1741.089844 2076.691406 1743.410156 C 2082.230469 1745.769531 2088.941406 1744.617188 2091.1875 1743.5625 L 2118.160156 1730.660156 C 2140.136719 1772.726562 2205.609375 1893.613281 2250.425781 1929.410156 C 2261.957031 1938.585938 2279.757812 1942.648438 2302.734375 1942.648438 C 2370.511719 1942.648438 2483.105469 1907.34375 2609.945312 1865.066406 C 2656.476562 1849.535156 2700.417969 1834.878906 2711.722656 1834.273438 C 2737.160156 1832.953125 2802.972656 1825.433594 2860.414062 1814.777344 C 2965.230469 1795.453125 2986.6875 1777.394531 2986.6875 1756.253906 C 2986.6875 1751.097656 2986.15625 1746.375 2985 1742.144531 L 3143.96875 1742.144531 C 3148.359375 1742.144531 3152.589844 1740.332031 3155.710938 1737.210938 C 3158.847656 1734.078125 3160.492188 1729.847656 3160.4375 1725.40625 C 3160.394531 1723.578125 3157.863281 1538.621094 3160.394531 1438.972656 Z M 2559.421875 1236.808594 C 2569.191406 1240.757812 2582.648438 1246.648438 2598.257812 1254.152344 L 2584.632812 1355.121094 L 2536.570312 1318.609375 Z M 2530.972656 1216.289062 L 2476.484375 1398.71875 C 2476.484375 1398.71875 2441.160156 1328.445312 2440.386719 1327.449219 L 2339 1203.585938 L 2356.128906 1133.3125 C 2370.894531 1137.878906 2386.613281 1140.339844 2402.871094 1140.339844 L 2438.417969 1140.339844 C 2457.035156 1140.339844 2474.839844 1137.105469 2491.429688 1131.230469 Z M 2402.871094 681.101562 L 2438.417969 681.101562 C 2470.480469 681.101562 2500.585938 693.230469 2523.378906 714.273438 C 2528.054688 718.574219 2532.355469 723.222656 2536.289062 728.214844 C 2395.121094 738.753906 2346.128906 806.820312 2333.054688 830.980469 L 2277.253906 830.980469 L 2277.253906 806.667969 C 2277.253906 737.433594 2333.601562 681.101562 2402.871094 681.101562 Z M 2277.253906 981.84375 L 2277.253906 863.925781 L 2564.089844 863.925781 L 2564.089844 981.84375 C 2564.089844 1051.132812 2507.730469 1107.464844 2438.402344 1107.464844 L 2402.871094 1107.464844 C 2394.125 1107.472656 2385.476562 1106.570312 2376.921875 1104.757812 C 2368.367188 1102.945312 2360.09375 1100.257812 2352.105469 1096.699219 C 2351.683594 1096.472656 2351.292969 1096.320312 2350.898438 1096.136719 C 2307.445312 1076.320312 2277.242188 1032.582031 2277.242188 981.84375 Z M 2317.078125 1228.898438 L 2390.789062 1318.929688 L 2338.929688 1373.125 L 2281.136719 1249.375 Z M 2710.035156 1801.34375 C 2694.921875 1802.117188 2661.75 1812.980469 2599.511719 1833.796875 C 2504.269531 1865.515625 2306.136719 1931.617188 2271.039062 1903.617188 C 2235.125 1874.960938 2175.800781 1769.832031 2147.886719 1716.355469 L 2271.644531 1657.128906 L 2343.445312 1787.835938 C 2346.566406 1793.5 2352.78125 1796.902344 2359.265625 1796.296875 C 2367.390625 1795.636719 2560.742188 1779.011719 2695.273438 1713.671875 C 2759.210938 1682.707031 2805.726562 1677.832031 2823.472656 1686.824219 C 2826.820312 1688.527344 2828.308594 1690.339844 2829.011719 1691.984375 C 2822.546875 1700.839844 2784.691406 1722.902344 2697.410156 1743.535156 C 2688.832031 1745.574219 2683.402344 1753.964844 2684.992188 1762.652344 C 2686.636719 1771.265625 2694.835938 1777.085938 2703.511719 1775.875 C 2740.917969 1770.605469 2773.105469 1765.660156 2801.550781 1761.496094 C 2883.234375 1749.199219 2942.28125 1740.304688 2952.390625 1749.03125 C 2952.996094 1749.578125 2953.488281 1751.222656 2953.65625 1753.527344 C 2932.453125 1772.925781 2775.691406 1797.886719 2710.050781 1801.34375 Z M 3011.761719 1439.113281 C 3013.785156 1521.246094 3012.40625 1661.738281 3011.859375 1709.171875 L 2856.6875 1709.171875 C 2861.3125 1702.425781 2863.296875 1695.34375 2861.917969 1687.878906 C 2859.554688 1674.695312 2851.148438 1663.875 2838.351562 1657.394531 C 2806.867188 1641.484375 2748.046875 1651.421875 2680.859375 1683.972656 C 2676.472656 1686.109375 2671.972656 1688.1875 2667.414062 1690.226562 C 2667.414062 1690.226562 2667.414062 1424.890625 2667.511719 1421.261719 C 2669.832031 1296.035156 2721.679688 1223.289062 2722.171875 1222.628906 C 2723.210938 1221.210938 2724.003906 1219.667969 2724.550781 1218 C 2725.097656 1216.332031 2725.367188 1214.617188 2725.363281 1212.859375 L 2725.421875 1116.570312 L 3069.652344 1116.570312 L 3069.652344 1207.816406 C 3056.632812 1227.632812 3009.496094 1308.9375 3011.746094 1439.113281 Z M 3127.265625 1709.117188 L 3102.558594 1709.117188 L 3102.558594 1550.019531 C 3102.558594 1549.476562 3102.535156 1548.9375 3102.480469 1548.402344 C 3102.429688 1547.863281 3102.351562 1547.332031 3102.246094 1546.800781 C 3102.140625 1546.273438 3102.011719 1545.75 3101.855469 1545.234375 C 3101.699219 1544.714844 3101.515625 1544.207031 3101.3125 1543.710938 C 3101.105469 1543.210938 3100.875 1542.722656 3100.621094 1542.246094 C 3100.367188 1541.769531 3100.089844 1541.308594 3099.789062 1540.859375 C 3099.488281 1540.410156 3099.167969 1539.976562 3098.828125 1539.558594 C 3098.484375 1539.144531 3098.121094 1538.742188 3097.738281 1538.363281 C 3097.359375 1537.980469 3096.957031 1537.617188 3096.539062 1537.277344 C 3096.125 1536.933594 3095.691406 1536.613281 3095.242188 1536.3125 C 3094.792969 1536.011719 3094.328125 1535.738281 3093.851562 1535.480469 C 3093.375 1535.226562 3092.886719 1535 3092.390625 1534.792969 C 3091.890625 1534.585938 3091.382812 1534.40625 3090.863281 1534.25 C 3090.347656 1534.09375 3089.824219 1533.960938 3089.296875 1533.855469 C 3088.765625 1533.753906 3088.230469 1533.675781 3087.695312 1533.621094 C 3087.15625 1533.570312 3086.617188 1533.542969 3086.078125 1533.546875 C 3085.539062 1533.542969 3085 1533.570312 3084.460938 1533.621094 C 3083.925781 1533.675781 3083.390625 1533.753906 3082.859375 1533.855469 C 3082.332031 1533.960938 3081.808594 1534.09375 3081.289062 1534.25 C 3080.773438 1534.40625 3080.265625 1534.585938 3079.765625 1534.792969 C 3079.269531 1535 3078.78125 1535.226562 3078.304688 1535.480469 C 3077.828125 1535.738281 3077.363281 1536.011719 3076.914062 1536.3125 C 3076.464844 1536.613281 3076.03125 1536.933594 3075.617188 1537.277344 C 3075.199219 1537.617188 3074.796875 1537.980469 3074.417969 1538.363281 C 3074.035156 1538.742188 3073.671875 1539.144531 3073.328125 1539.558594 C 3072.988281 1539.976562 3072.667969 1540.410156 3072.367188 1540.859375 C 3072.066406 1541.308594 3071.789062 1541.769531 3071.535156 1542.246094 C 3071.28125 1542.722656 3071.050781 1543.210938 3070.84375 1543.710938 C 3070.636719 1544.207031 3070.457031 1544.714844 3070.300781 1545.234375 C 3070.144531 1545.75 3070.015625 1546.273438 3069.910156 1546.800781 C 3069.804688 1547.332031 3069.726562 1547.863281 3069.675781 1548.402344 C 3069.621094 1548.9375 3069.597656 1549.476562 3069.597656 1550.019531 L 3069.597656 1709.117188 L 3044.820312 1709.117188 C 3045.382812 1661.132812 3046.746094 1520.699219 3044.707031 1438.339844 C 3043.0625 1344.847656 3069.371094 1278.144531 3086.078125 1245.410156 C 3102.769531 1278.074219 3129.078125 1344.777344 3127.433594 1438.171875 C 3125.351562 1520.628906 3126.730469 1661.007812 3127.265625 1709.101562 Z M 3127.265625 1709.117188 " fill-opacity="1" fill-rule="nonzero"/></g><g fill="#ffffff" fill-opacity="1"><g transform="translate(1682.501919, 490.095009)"><g><path d="M 74 -4.046875 L 76.03125 -4.046875 L 76.03125 0 L 18.203125 0 L 18.203125 -4.046875 L 20.21875 -4.046875 C 22.375 -4.046875 24.257812 -4.851562 25.875 -6.46875 C 27.5 -8.082031 28.914062 -9.96875 30.125 -12.125 C 31.34375 -14.289062 32.21875 -16.648438 32.75 -19.203125 C 33.289062 -21.765625 33.5625 -24.125 33.5625 -26.28125 L 33.5625 -241.828125 C 33.5625 -243.722656 33.289062 -245.878906 32.75 -248.296875 C 32.21875 -250.722656 31.34375 -253.015625 30.125 -255.171875 C 28.914062 -257.335938 27.5 -259.160156 25.875 -260.640625 C 24.257812 -262.117188 22.507812 -262.859375 20.625 -262.859375 L 18.609375 -262.859375 L 18.609375 -266.90625 L 76.4375 -266.90625 L 76.4375 -262.859375 L 74.40625 -262.859375 C 72.25 -262.859375 70.363281 -262.117188 68.75 -260.640625 C 67.132812 -259.160156 65.71875 -257.335938 64.5 -255.171875 C 63.289062 -253.015625 62.347656 -250.722656 61.671875 -248.296875 C 60.992188 -245.878906 60.65625 -243.722656 60.65625 -241.828125 L 60.65625 -148.015625 L 163.375 -249.921875 C 165 -251.804688 165.8125 -253.960938 165.8125 -256.390625 C 165.8125 -260.703125 164.191406 -262.859375 160.953125 -262.859375 L 158.9375 -262.859375 L 158.9375 -266.90625 L 208.265625 -266.90625 L 208.265625 -262.859375 L 206.25 -262.859375 C 202.46875 -262.859375 198.554688 -261.507812 194.515625 -258.8125 C 190.472656 -256.125 186.429688 -252.753906 182.390625 -248.703125 L 97.46875 -164.1875 L 186.828125 -28.71875 C 187.097656 -28.175781 188.3125 -26.554688 190.46875 -23.859375 C 192.625 -21.160156 195.253906 -18.328125 198.359375 -15.359375 C 201.460938 -12.398438 204.96875 -9.773438 208.875 -7.484375 C 212.78125 -5.191406 216.757812 -4.046875 220.8125 -4.046875 L 220.8125 0 L 211.09375 0 C 203.007812 0 196.203125 -0.46875 190.671875 -1.40625 C 185.148438 -2.351562 180.363281 -3.90625 176.3125 -6.0625 C 172.269531 -8.21875 168.695312 -10.910156 165.59375 -14.140625 C 162.5 -17.378906 159.332031 -21.425781 156.09375 -26.28125 L 77.640625 -144.78125 L 60.65625 -127.390625 L 60.65625 -26.28125 C 60.65625 -24.125 60.992188 -21.832031 61.671875 -19.40625 C 62.347656 -16.976562 63.222656 -14.617188 64.296875 -12.328125 C 65.378906 -10.035156 66.726562 -8.082031 68.34375 -6.46875 C 69.957031 -4.851562 71.84375 -4.046875 74 -4.046875 Z M 74 -4.046875 "/></g></g></g><g fill="#ffffff" fill-opacity="1"><g transform="translate(1919.480817, 490.095009)"><g><path d="M 172.6875 -4.046875 L 174.703125 -4.046875 C 181.171875 -4.046875 184.40625 -7.007812 184.40625 -12.9375 C 184.40625 -15.09375 184.003906 -17.382812 183.203125 -19.8125 L 146.796875 -118.09375 L 76.03125 -118.09375 L 40.84375 -21.4375 C 40.03125 -19.28125 39.625 -17.257812 39.625 -15.375 C 39.625 -11.863281 40.566406 -9.097656 42.453125 -7.078125 C 44.347656 -5.054688 46.375 -4.046875 48.53125 -4.046875 L 50.546875 -4.046875 L 50.546875 0 L 5.65625 0 L 5.65625 -4.046875 L 7.6875 -4.046875 C 11.1875 -4.046875 14.617188 -6.132812 17.984375 -10.3125 C 21.359375 -14.488281 24.125 -19.410156 26.28125 -25.078125 L 118.890625 -271.765625 L 209.484375 -27.5 C 211.367188 -22.101562 213.992188 -16.84375 217.359375 -11.71875 C 220.734375 -6.601562 225.117188 -4.046875 230.515625 -4.046875 L 232.53125 -4.046875 L 232.53125 0 L 172.6875 0 Z M 80.078125 -131.84375 L 142.34375 -131.84375 L 111.21875 -216.359375 Z M 80.078125 -131.84375 "/></g></g></g><g fill="#ffffff" fill-opacity="1"><g transform="translate(2166.16532, 490.095009)"><g><path d="M 73.203125 -4.046875 L 75.21875 -4.046875 L 75.21875 0 L 18.203125 0 L 18.203125 -4.046875 L 20.21875 -4.046875 C 22.101562 -4.046875 23.851562 -4.851562 25.46875 -6.46875 C 27.09375 -8.082031 28.507812 -9.96875 29.71875 -12.125 C 30.9375 -14.289062 31.8125 -16.648438 32.34375 -19.203125 C 32.882812 -21.765625 33.15625 -24.125 33.15625 -26.28125 L 33.15625 -241.828125 C 33.15625 -243.722656 32.882812 -245.878906 32.34375 -248.296875 C 31.8125 -250.722656 30.9375 -253.015625 29.71875 -255.171875 C 28.507812 -257.335938 27.09375 -259.160156 25.46875 -260.640625 C 23.851562 -262.117188 22.101562 -262.859375 20.21875 -262.859375 L 18.203125 -262.859375 L 18.203125 -266.90625 L 88.5625 -266.90625 C 115.519531 -266.90625 136.34375 -261.644531 151.03125 -251.125 C 165.726562 -240.613281 173.078125 -225.113281 173.078125 -204.625 C 173.078125 -194.382812 171.390625 -185.421875 168.015625 -177.734375 C 164.648438 -170.054688 160.132812 -163.453125 154.46875 -157.921875 C 148.8125 -152.390625 142.140625 -147.9375 134.453125 -144.5625 C 126.773438 -141.195312 118.625 -138.707031 110 -137.09375 L 139.109375 -92.609375 C 146.117188 -81.828125 153.265625 -71.242188 160.546875 -60.859375 C 167.828125 -50.484375 174.972656 -39.769531 181.984375 -28.71875 C 183.867188 -26.019531 185.957031 -23.1875 188.25 -20.21875 C 190.539062 -17.25 192.96875 -14.550781 195.53125 -12.125 C 198.09375 -9.707031 200.785156 -7.753906 203.609375 -6.265625 C 206.441406 -4.785156 209.34375 -4.046875 212.3125 -4.046875 L 212.3125 0 L 194.921875 0 C 184.140625 0 175.3125 -2.625 168.4375 -7.875 C 161.5625 -13.132812 155.832031 -19.269531 151.25 -26.28125 C 139.113281 -44.082031 127.046875 -62.144531 115.046875 -80.46875 C 103.054688 -98.800781 91.128906 -116.867188 79.265625 -134.671875 C 76.296875 -134.941406 73.125 -135.273438 69.75 -135.671875 C 66.382812 -136.078125 63.21875 -136.550781 60.25 -137.09375 L 60.25 -26.28125 C 60.25 -24.125 60.519531 -21.765625 61.0625 -19.203125 C 61.601562 -16.648438 62.476562 -14.289062 63.6875 -12.125 C 64.90625 -9.96875 66.253906 -8.082031 67.734375 -6.46875 C 69.222656 -4.851562 71.046875 -4.046875 73.203125 -4.046875 Z M 60.25 -253.15625 L 60.25 -150.4375 L 62.28125 -150.4375 C 64.4375 -150.164062 67.875 -149.960938 72.59375 -149.828125 C 77.3125 -149.691406 83.175781 -149.625 90.1875 -149.625 C 95.84375 -149.625 101.835938 -150.5 108.171875 -152.25 C 114.515625 -154.007812 120.445312 -156.976562 125.96875 -161.15625 C 131.5 -165.332031 136.082031 -170.789062 139.71875 -177.53125 C 143.363281 -184.269531 145.1875 -192.765625 145.1875 -203.015625 C 145.1875 -213.253906 143.226562 -221.609375 139.3125 -228.078125 C 135.40625 -234.554688 130.015625 -239.679688 123.140625 -243.453125 C 116.265625 -247.222656 107.972656 -249.78125 98.265625 -251.125 C 88.566406 -252.476562 77.921875 -253.15625 66.328125 -253.15625 Z M 60.25 -253.15625 "/></g></g></g><g fill="#ffffff" fill-opacity="1"><g transform="translate(2392.629803, 490.095009)"><g><path d="M 17.796875 -4.046875 L 19.8125 -4.046875 C 21.695312 -4.046875 23.445312 -4.851562 25.0625 -6.46875 C 26.6875 -8.082031 28.101562 -9.96875 29.3125 -12.125 C 30.53125 -14.289062 31.40625 -16.648438 31.9375 -19.203125 C 32.476562 -21.765625 32.75 -24.125 32.75 -26.28125 L 32.75 -241.828125 C 32.75 -243.722656 32.476562 -245.878906 31.9375 -248.296875 C 31.40625 -250.722656 30.597656 -253.015625 29.515625 -255.171875 C 28.441406 -257.335938 27.09375 -259.160156 25.46875 -260.640625 C 23.851562 -262.117188 21.96875 -262.859375 19.8125 -262.859375 L 17.796875 -262.859375 L 17.796875 -266.90625 L 95.84375 -266.90625 C 117.144531 -266.90625 136.285156 -263.195312 153.265625 -255.78125 C 170.253906 -248.375 184.613281 -238.398438 196.34375 -225.859375 C 208.070312 -213.328125 217.035156 -198.972656 223.234375 -182.796875 C 229.429688 -166.617188 232.53125 -149.765625 232.53125 -132.234375 C 232.53125 -115.796875 229.5625 -99.6875 223.625 -83.90625 C 217.695312 -68.132812 208.800781 -54.046875 196.9375 -41.640625 C 185.082031 -29.242188 170.253906 -19.203125 152.453125 -11.515625 C 134.660156 -3.835938 114.039062 0 90.59375 0 L 17.796875 0 Z M 205.03125 -126.171875 C 205.03125 -143.429688 201.929688 -159.742188 195.734375 -175.109375 C 189.535156 -190.472656 180.835938 -203.882812 169.640625 -215.34375 C 158.453125 -226.800781 145.242188 -235.898438 130.015625 -242.640625 C 114.785156 -249.378906 98.273438 -252.75 80.484375 -252.75 L 59.859375 -252.75 L 59.859375 -14.15625 L 81.28125 -14.15625 C 95.84375 -14.15625 110.46875 -16.378906 125.15625 -20.828125 C 139.851562 -25.273438 153.132812 -32.148438 165 -41.453125 C 176.863281 -50.753906 186.5 -62.414062 193.90625 -76.4375 C 201.320312 -90.457031 205.03125 -107.035156 205.03125 -126.171875 Z M 205.03125 -126.171875 "/></g></g></g><g fill="#ffffff" fill-opacity="1"><g transform="translate(2649.828812, 490.095009)"><g><path d="M 172.6875 -4.046875 L 174.703125 -4.046875 C 181.171875 -4.046875 184.40625 -7.007812 184.40625 -12.9375 C 184.40625 -15.09375 184.003906 -17.382812 183.203125 -19.8125 L 146.796875 -118.09375 L 76.03125 -118.09375 L 40.84375 -21.4375 C 40.03125 -19.28125 39.625 -17.257812 39.625 -15.375 C 39.625 -11.863281 40.566406 -9.097656 42.453125 -7.078125 C 44.347656 -5.054688 46.375 -4.046875 48.53125 -4.046875 L 50.546875 -4.046875 L 50.546875 0 L 5.65625 0 L 5.65625 -4.046875 L 7.6875 -4.046875 C 11.1875 -4.046875 14.617188 -6.132812 17.984375 -10.3125 C 21.359375 -14.488281 24.125 -19.410156 26.28125 -25.078125 L 118.890625 -271.765625 L 209.484375 -27.5 C 211.367188 -22.101562 213.992188 -16.84375 217.359375 -11.71875 C 220.734375 -6.601562 225.117188 -4.046875 230.515625 -4.046875 L 232.53125 -4.046875 L 232.53125 0 L 172.6875 0 Z M 80.078125 -131.84375 L 142.34375 -131.84375 L 111.21875 -216.359375 Z M 85.734375 -278.234375 L 143.15625 -321.5 L 153.671875 -303.3125 L 86.953125 -275.8125 Z M 85.734375 -278.234375 "/></g></g></g><g fill="#ffffff" fill-opacity="1"><g transform="translate(2896.513293, 490.095009)"><g><path d="M 17.796875 -266.90625 L 75.21875 -266.90625 C 105.144531 -266.90625 127.859375 -261.175781 143.359375 -249.71875 C 158.859375 -238.257812 166.609375 -222.015625 166.609375 -200.984375 C 166.609375 -189.660156 163.910156 -179.550781 158.515625 -170.65625 C 153.128906 -161.757812 146.054688 -154.273438 137.296875 -148.203125 C 128.535156 -142.140625 118.691406 -137.488281 107.765625 -134.25 C 96.847656 -131.019531 86 -129.40625 75.21875 -129.40625 L 59.859375 -129.40625 L 59.859375 -26.28125 C 59.859375 -24.125 60.125 -21.765625 60.65625 -19.203125 C 61.195312 -16.648438 62.070312 -14.289062 63.28125 -12.125 C 64.5 -9.96875 65.847656 -8.082031 67.328125 -6.46875 C 68.816406 -4.851562 70.640625 -4.046875 72.796875 -4.046875 L 74.8125 -4.046875 L 74.8125 0 L 17.796875 0 L 17.796875 -4.046875 L 19.8125 -4.046875 C 21.695312 -4.046875 23.445312 -4.851562 25.0625 -6.46875 C 26.6875 -8.082031 28.035156 -9.96875 29.109375 -12.125 C 30.191406 -14.289062 31.003906 -16.648438 31.546875 -19.203125 C 32.085938 -21.765625 32.359375 -24.125 32.359375 -26.28125 L 32.359375 -241.828125 C 32.359375 -245.609375 31.273438 -249.925781 29.109375 -254.78125 C 26.953125 -259.632812 23.851562 -262.328125 19.8125 -262.859375 L 17.796875 -262.859375 Z M 59.859375 -252.75 L 59.859375 -143.5625 L 71.984375 -143.5625 C 82.765625 -143.5625 92.398438 -145.046875 100.890625 -148.015625 C 109.390625 -150.984375 116.46875 -154.890625 122.125 -159.734375 C 127.789062 -164.585938 132.101562 -170.113281 135.0625 -176.3125 C 138.03125 -182.519531 139.515625 -188.859375 139.515625 -195.328125 C 139.515625 -203.148438 138.234375 -210.5 135.671875 -217.375 C 133.117188 -224.25 128.941406 -230.3125 123.140625 -235.5625 C 117.347656 -240.820312 109.734375 -245 100.296875 -248.09375 C 90.859375 -251.195312 79.265625 -252.75 65.515625 -252.75 Z M 59.859375 -252.75 "/></g></g></g><g fill="#ffffff" fill-opacity="1"><g transform="translate(3087.390544, 490.095009)"><g><path d="M 19.8125 -266.90625 L 77.640625 -266.90625 L 77.640625 -262.859375 L 75.625 -262.859375 C 73.738281 -262.859375 71.984375 -262.117188 70.359375 -260.640625 C 68.742188 -259.160156 67.394531 -257.40625 66.3125 -255.375 C 65.238281 -253.351562 64.363281 -251.0625 63.6875 -248.5 C 63.019531 -245.945312 62.6875 -243.722656 62.6875 -241.828125 L 62.6875 -26.28125 C 62.6875 -24.125 62.953125 -21.765625 63.484375 -19.203125 C 64.023438 -16.648438 64.898438 -14.289062 66.109375 -12.125 C 67.328125 -9.96875 68.675781 -8.082031 70.15625 -6.46875 C 71.644531 -4.851562 73.46875 -4.046875 75.625 -4.046875 L 77.640625 -4.046875 L 77.640625 0 L 19.8125 0 L 19.8125 -4.046875 L 21.84375 -4.046875 C 24 -4.046875 25.882812 -4.785156 27.5 -6.265625 C 29.113281 -7.753906 30.523438 -9.644531 31.734375 -11.9375 C 32.953125 -14.226562 33.832031 -16.648438 34.375 -19.203125 C 34.914062 -21.765625 35.1875 -24.125 35.1875 -26.28125 L 35.1875 -241.828125 C 35.1875 -243.722656 34.914062 -245.878906 34.375 -248.296875 C 33.832031 -250.722656 32.953125 -253.015625 31.734375 -255.171875 C 30.523438 -257.335938 29.113281 -259.160156 27.5 -260.640625 C 25.882812 -262.117188 24 -262.859375 21.84375 -262.859375 L 19.8125 -262.859375 Z M 19.8125 -266.90625 "/></g></g></g><g fill="#ffffff" fill-opacity="1"><g transform="translate(3193.747975, 490.095009)"><g><path d="M 154.484375 -270.953125 C 175.515625 -270.953125 194.382812 -267.242188 211.09375 -259.828125 C 227.8125 -252.410156 242.035156 -242.429688 253.765625 -229.890625 C 265.492188 -217.359375 274.523438 -202.800781 280.859375 -186.21875 C 287.191406 -169.644531 290.359375 -152.328125 290.359375 -134.265625 C 290.359375 -114.046875 286.648438 -95.441406 279.234375 -78.453125 C 271.828125 -61.472656 261.648438 -46.914062 248.703125 -34.78125 C 235.765625 -22.644531 220.734375 -13.140625 203.609375 -6.265625 C 186.492188 0.609375 168.234375 4.046875 148.828125 4.046875 C 128.066406 4.046875 109.394531 0.269531 92.8125 -7.28125 C 76.226562 -14.832031 62.207031 -24.804688 50.75 -37.203125 C 39.289062 -49.609375 30.460938 -63.898438 24.265625 -80.078125 C 18.066406 -96.253906 14.96875 -113.101562 14.96875 -130.625 C 14.96875 -147.875 18.066406 -164.925781 24.265625 -181.78125 C 30.460938 -198.632812 39.5625 -213.664062 51.5625 -226.875 C 63.5625 -240.082031 78.1875 -250.726562 95.4375 -258.8125 C 112.695312 -266.90625 132.378906 -270.953125 154.484375 -270.953125 Z M 154.078125 -10.109375 C 172.140625 -10.921875 187.976562 -15.03125 201.59375 -22.4375 C 215.207031 -29.851562 226.597656 -39.289062 235.765625 -50.75 C 244.929688 -62.207031 251.738281 -74.8125 256.1875 -88.5625 C 260.632812 -102.3125 262.859375 -115.925781 262.859375 -129.40625 C 262.859375 -144.238281 260.160156 -159.203125 254.765625 -174.296875 C 249.378906 -189.398438 241.695312 -203.082031 231.71875 -215.34375 C 221.75 -227.613281 209.820312 -237.585938 195.9375 -245.265625 C 182.050781 -252.953125 166.476562 -256.796875 149.21875 -256.796875 C 132.507812 -256.796875 117.546875 -253.085938 104.328125 -245.671875 C 91.117188 -238.265625 79.863281 -228.765625 70.5625 -217.171875 C 61.257812 -205.578125 54.179688 -192.632812 49.328125 -178.34375 C 44.484375 -164.050781 42.0625 -150.03125 42.0625 -136.28125 C 42.0625 -121.457031 44.890625 -106.5625 50.546875 -91.59375 C 56.210938 -76.632812 64.03125 -63.085938 74 -50.953125 C 83.976562 -38.816406 95.773438 -28.972656 109.390625 -21.421875 C 123.003906 -13.878906 137.898438 -10.109375 154.078125 -10.109375 Z M 154.078125 -10.109375 "/></g></g></g><g fill="#ffffff" fill-opacity="1"><g transform="translate(1267.104759, 2321.241575)"><g><path d="M 95.25 -152.09375 C 83.40625 -152.09375 73.125 -149.972656 64.40625 -145.734375 C 55.695312 -141.503906 48.460938 -135.988281 42.703125 -129.1875 C 36.941406 -122.394531 32.660156 -114.757812 29.859375 -106.28125 C 27.066406 -97.800781 25.671875 -89.40625 25.671875 -81.09375 C 25.671875 -71.65625 27.507812 -62.414062 31.1875 -53.375 C 34.863281 -44.34375 39.941406 -36.347656 46.421875 -29.390625 C 52.898438 -22.429688 60.457031 -16.832031 69.09375 -12.59375 C 77.726562 -8.351562 87.082031 -6.234375 97.15625 -6.234375 C 100.039062 -6.234375 103.441406 -6.550781 107.359375 -7.1875 C 111.273438 -7.832031 115.148438 -9.070312 118.984375 -10.90625 C 122.828125 -12.75 126.390625 -15.347656 129.671875 -18.703125 C 132.953125 -22.066406 135.46875 -26.46875 137.21875 -31.90625 L 139.625 -31.90625 L 139.625 -5.28125 C 137.226562 -5.28125 134.707031 -4.957031 132.0625 -4.3125 C 129.425781 -3.675781 126.507812 -2.957031 123.3125 -2.15625 C 119.15625 -1.039062 114.554688 -0.00390625 109.515625 0.953125 C 104.472656 1.921875 99.15625 2.40625 93.5625 2.40625 C 79.644531 2.40625 67.410156 0.00390625 56.859375 -4.796875 C 46.304688 -9.597656 37.507812 -15.835938 30.46875 -23.515625 C 23.425781 -31.191406 18.144531 -39.867188 14.625 -49.546875 C 11.113281 -59.222656 9.359375 -69.015625 9.359375 -78.921875 C 9.359375 -88.835938 11.113281 -98.675781 14.625 -108.4375 C 18.144531 -118.195312 23.503906 -126.953125 30.703125 -134.703125 C 37.898438 -142.460938 46.9375 -148.738281 57.8125 -153.53125 C 68.6875 -158.332031 81.484375 -160.734375 96.203125 -160.734375 C 101.484375 -160.734375 106.238281 -160.253906 110.46875 -159.296875 C 114.707031 -158.335938 118.507812 -157.378906 121.875 -156.421875 C 124.269531 -155.617188 126.46875 -155.015625 128.46875 -154.609375 C 130.46875 -154.210938 132.425781 -154.015625 134.34375 -154.015625 L 134.34375 -127.390625 L 131.953125 -127.390625 C 130.992188 -132.347656 129.234375 -136.460938 126.671875 -139.734375 C 124.109375 -143.015625 121.109375 -145.535156 117.671875 -147.296875 C 114.234375 -149.054688 110.554688 -150.296875 106.640625 -151.015625 C 102.722656 -151.734375 98.925781 -152.09375 95.25 -152.09375 Z M 95.25 -152.09375 "/></g></g></g><g fill="#ffffff" fill-opacity="1"><g transform="translate(1416.566835, 2321.241575)"><g><path d="M 10.796875 -2.40625 L 12 -2.40625 C 13.28125 -2.40625 14.398438 -2.84375 15.359375 -3.71875 C 16.316406 -4.59375 17.15625 -5.671875 17.875 -6.953125 C 18.59375 -8.234375 19.148438 -9.59375 19.546875 -11.03125 C 19.953125 -12.46875 20.15625 -13.828125 20.15625 -15.109375 L 20.15625 -143.46875 C 20.15625 -144.582031 19.953125 -145.859375 19.546875 -147.296875 C 19.148438 -148.742188 18.59375 -150.101562 17.875 -151.375 C 17.15625 -152.65625 16.316406 -153.734375 15.359375 -154.609375 C 14.398438 -155.492188 13.28125 -155.9375 12 -155.9375 L 10.796875 -155.9375 L 10.796875 -158.34375 L 45.34375 -158.34375 L 45.34375 -155.9375 L 44.140625 -155.9375 C 42.859375 -155.9375 41.738281 -155.492188 40.78125 -154.609375 C 39.820312 -153.734375 39.019531 -152.65625 38.375 -151.375 C 37.738281 -150.101562 37.21875 -148.742188 36.8125 -147.296875 C 36.414062 -145.859375 36.21875 -144.582031 36.21875 -143.46875 L 36.21875 -8.875 L 88.765625 -8.875 C 91.804688 -8.875 94.445312 -9.59375 96.6875 -11.03125 C 98.925781 -12.46875 100.800781 -14.265625 102.3125 -16.421875 C 103.832031 -18.585938 104.953125 -20.910156 105.671875 -23.390625 C 106.398438 -25.867188 106.765625 -28.148438 106.765625 -30.234375 L 109.15625 -30.234375 L 109.15625 0 L 10.796875 0 Z M 10.796875 -2.40625 "/></g></g></g><g fill="#ffffff" fill-opacity="1"><g transform="translate(1528.12361, 2321.241575)"><g><path d="M 11.75 -158.34375 L 46.0625 -158.34375 L 46.0625 -155.9375 L 44.859375 -155.9375 C 43.742188 -155.9375 42.703125 -155.492188 41.734375 -154.609375 C 40.773438 -153.734375 39.976562 -152.695312 39.34375 -151.5 C 38.707031 -150.300781 38.1875 -148.941406 37.78125 -147.421875 C 37.382812 -145.898438 37.1875 -144.582031 37.1875 -143.46875 L 37.1875 -15.59375 C 37.1875 -14.3125 37.34375 -12.910156 37.65625 -11.390625 C 37.976562 -9.867188 38.5 -8.46875 39.21875 -7.1875 C 39.9375 -5.914062 40.734375 -4.800781 41.609375 -3.84375 C 42.492188 -2.882812 43.578125 -2.40625 44.859375 -2.40625 L 46.0625 -2.40625 L 46.0625 0 L 11.75 0 L 11.75 -2.40625 L 12.953125 -2.40625 C 14.234375 -2.40625 15.351562 -2.84375 16.3125 -3.71875 C 17.269531 -4.59375 18.109375 -5.707031 18.828125 -7.0625 C 19.546875 -8.425781 20.066406 -9.867188 20.390625 -11.390625 C 20.710938 -12.910156 20.875 -14.3125 20.875 -15.59375 L 20.875 -143.46875 C 20.875 -144.582031 20.710938 -145.859375 20.390625 -147.296875 C 20.066406 -148.742188 19.546875 -150.101562 18.828125 -151.375 C 18.109375 -152.65625 17.269531 -153.734375 16.3125 -154.609375 C 15.351562 -155.492188 14.234375 -155.9375 12.953125 -155.9375 L 11.75 -155.9375 Z M 11.75 -158.34375 "/></g></g></g><g fill="#ffffff" fill-opacity="1"><g transform="translate(1586.421009, 2321.241575)"><g><path d="M 92.125 -160.734375 C 104.601562 -160.734375 115.796875 -158.375 125.703125 -153.65625 C 135.617188 -148.9375 144.054688 -142.78125 151.015625 -135.1875 C 157.972656 -127.59375 163.332031 -118.992188 167.09375 -109.390625 C 170.851562 -99.796875 172.734375 -90.039062 172.734375 -80.125 C 172.734375 -72.925781 172.015625 -66.285156 170.578125 -60.203125 C 169.140625 -54.128906 167.140625 -48.535156 164.578125 -43.421875 C 162.015625 -38.304688 159.09375 -33.628906 155.8125 -29.390625 C 152.539062 -25.148438 148.984375 -21.269531 145.140625 -17.75 L 153.0625 -8.875 C 159.300781 -3.113281 166.097656 2.039062 173.453125 6.59375 C 180.804688 11.15625 188.242188 14.992188 195.765625 18.109375 C 203.285156 21.234375 210.722656 23.59375 218.078125 25.1875 C 225.429688 26.789062 232.148438 27.59375 238.234375 27.59375 C 243.503906 27.59375 249.140625 27.109375 255.140625 26.140625 C 261.140625 25.179688 267.21875 23.742188 273.375 21.828125 C 279.53125 19.910156 285.644531 17.390625 291.71875 14.265625 C 297.800781 11.148438 303.5625 7.4375 309 3.125 L 310.4375 5.28125 C 305.15625 11.039062 299.234375 16.117188 292.671875 20.515625 C 286.117188 24.910156 279.242188 28.546875 272.046875 31.421875 C 264.859375 34.304688 257.460938 36.503906 249.859375 38.015625 C 242.265625 39.535156 234.789062 40.296875 227.4375 40.296875 C 220.070312 40.296875 212.710938 39.65625 205.359375 38.375 C 198.003906 37.101562 190.644531 34.945312 183.28125 31.90625 C 175.925781 28.863281 168.570312 24.742188 161.21875 19.546875 C 153.863281 14.347656 146.503906 7.832031 139.140625 0 L 130.984375 -8.640625 C 128.265625 -6.878906 125.1875 -5.316406 121.75 -3.953125 C 118.3125 -2.597656 114.671875 -1.441406 110.828125 -0.484375 C 106.992188 0.472656 103.078125 1.191406 99.078125 1.671875 C 95.078125 2.160156 91.320312 2.40625 87.8125 2.40625 C 76.613281 2.40625 66.253906 0.125 56.734375 -4.4375 C 47.222656 -9 38.988281 -15 32.03125 -22.4375 C 25.070312 -29.875 19.59375 -38.390625 15.59375 -47.984375 C 11.59375 -57.578125 9.59375 -67.410156 9.59375 -77.484375 C 9.59375 -87.722656 11.429688 -97.835938 15.109375 -107.828125 C 18.785156 -117.828125 24.179688 -126.742188 31.296875 -134.578125 C 38.421875 -142.421875 47.097656 -148.738281 57.328125 -153.53125 C 67.566406 -158.332031 79.164062 -160.734375 92.125 -160.734375 Z M 91.890625 -6 C 102.597656 -6.476562 112.03125 -8.914062 120.1875 -13.3125 C 128.34375 -17.707031 135.097656 -23.300781 140.453125 -30.09375 C 145.816406 -36.894531 149.859375 -44.375 152.578125 -52.53125 C 155.296875 -60.695312 156.65625 -68.695312 156.65625 -76.53125 C 156.65625 -85.320312 155.015625 -94.234375 151.734375 -103.265625 C 148.460938 -112.304688 143.90625 -120.46875 138.0625 -127.75 C 132.226562 -135.03125 125.148438 -140.945312 116.828125 -145.5 C 108.515625 -150.0625 99.320312 -152.34375 89.25 -152.34375 C 79.332031 -152.34375 70.414062 -150.140625 62.5 -145.734375 C 54.582031 -141.335938 47.90625 -135.703125 42.46875 -128.828125 C 37.03125 -121.953125 32.867188 -114.316406 29.984375 -105.921875 C 27.109375 -97.523438 25.671875 -89.25 25.671875 -81.09375 C 25.671875 -72.289062 27.304688 -63.410156 30.578125 -54.453125 C 33.859375 -45.503906 38.457031 -37.429688 44.375 -30.234375 C 50.300781 -23.035156 57.300781 -17.195312 65.375 -12.71875 C 73.445312 -8.238281 82.285156 -6 91.890625 -6 Z M 91.890625 -6 "/></g></g></g><g fill="#ffffff" fill-opacity="1"><g transform="translate(1771.389318, 2321.241575)"><g><path d="M 10.796875 -158.34375 L 44.859375 -158.34375 L 44.859375 -155.9375 L 43.65625 -155.9375 C 42.382812 -155.9375 41.265625 -155.492188 40.296875 -154.609375 C 39.335938 -153.734375 38.5 -152.65625 37.78125 -151.375 C 37.0625 -150.101562 36.539062 -148.742188 36.21875 -147.296875 C 35.90625 -145.859375 35.75 -144.582031 35.75 -143.46875 L 35.75 -48.703125 C 35.75 -42.460938 36.382812 -36.703125 37.65625 -31.421875 C 38.9375 -26.148438 41.097656 -21.59375 44.140625 -17.75 C 47.179688 -13.914062 51.179688 -10.914062 56.140625 -8.75 C 61.097656 -6.59375 67.175781 -5.515625 74.375 -5.515625 C 82.363281 -5.515625 88.757812 -6.789062 93.5625 -9.34375 C 98.363281 -11.90625 102.039062 -15.226562 104.59375 -19.3125 C 107.15625 -23.394531 108.835938 -27.992188 109.640625 -33.109375 C 110.441406 -38.222656 110.84375 -43.257812 110.84375 -48.21875 L 110.84375 -143.46875 C 110.84375 -144.582031 110.679688 -145.859375 110.359375 -147.296875 C 110.035156 -148.742188 109.515625 -150.101562 108.796875 -151.375 C 108.078125 -152.65625 107.238281 -153.734375 106.28125 -154.609375 C 105.320312 -155.492188 104.28125 -155.9375 103.15625 -155.9375 L 101.953125 -155.9375 L 101.953125 -158.34375 L 128.109375 -158.34375 L 128.109375 -155.9375 L 126.90625 -155.9375 C 125.625 -155.9375 124.546875 -155.492188 123.671875 -154.609375 C 122.796875 -153.734375 121.992188 -152.65625 121.265625 -151.375 C 120.546875 -150.101562 120.023438 -148.742188 119.703125 -147.296875 C 119.390625 -145.859375 119.234375 -144.582031 119.234375 -143.46875 L 119.234375 -48.9375 C 119.234375 -38.539062 117.953125 -30.023438 115.390625 -23.390625 C 112.835938 -16.753906 109.320312 -11.515625 104.84375 -7.671875 C 100.363281 -3.835938 95.125 -1.203125 89.125 0.234375 C 83.125 1.679688 76.765625 2.40625 70.046875 2.40625 C 62.847656 2.40625 56.171875 1.644531 50.015625 0.125 C 43.859375 -1.394531 38.539062 -4.070312 34.0625 -7.90625 C 29.582031 -11.75 26.0625 -16.988281 23.5 -23.625 C 20.945312 -30.269531 19.671875 -38.628906 19.671875 -48.703125 L 19.671875 -143.46875 C 19.671875 -144.582031 19.507812 -145.859375 19.1875 -147.296875 C 18.875 -148.742188 18.351562 -150.101562 17.625 -151.375 C 16.90625 -152.65625 16.066406 -153.734375 15.109375 -154.609375 C 14.148438 -155.492188 13.113281 -155.9375 12 -155.9375 L 10.796875 -155.9375 Z M 10.796875 -158.34375 "/></g></g></g><g fill="#ffffff" fill-opacity="1"><g transform="translate(1911.494989, 2321.241575)"><g><path d="M 10.796875 -2.40625 L 12 -2.40625 C 13.28125 -2.40625 14.398438 -2.84375 15.359375 -3.71875 C 16.316406 -4.59375 17.15625 -5.671875 17.875 -6.953125 C 18.59375 -8.234375 19.148438 -9.59375 19.546875 -11.03125 C 19.953125 -12.46875 20.15625 -13.828125 20.15625 -15.109375 L 20.15625 -143.46875 C 20.15625 -144.582031 19.953125 -145.859375 19.546875 -147.296875 C 19.148438 -148.742188 18.59375 -150.101562 17.875 -151.375 C 17.15625 -152.65625 16.316406 -153.734375 15.359375 -154.609375 C 14.398438 -155.492188 13.28125 -155.9375 12 -155.9375 L 10.796875 -155.9375 L 10.796875 -158.34375 L 103.15625 -158.34375 L 103.15625 -136.03125 L 100.765625 -136.03125 C 100.441406 -139.707031 99 -142.941406 96.4375 -145.734375 C 93.882812 -148.535156 89.890625 -149.9375 84.453125 -149.9375 L 36.21875 -149.9375 L 36.21875 -89.25 L 76.046875 -89.25 C 79.722656 -89.25 82.800781 -90.367188 85.28125 -92.609375 C 87.757812 -94.847656 89 -97.484375 89 -100.515625 L 91.40625 -100.515625 L 91.40625 -70.53125 L 89 -70.53125 C 89 -73.40625 87.800781 -75.882812 85.40625 -77.96875 C 83.007812 -80.050781 79.890625 -81.09375 76.046875 -81.09375 L 36.21875 -81.09375 L 36.21875 -8.390625 L 88.765625 -8.390625 C 91.804688 -8.390625 94.445312 -9.109375 96.6875 -10.546875 C 98.925781 -11.992188 100.800781 -13.71875 102.3125 -15.71875 C 103.832031 -17.71875 104.953125 -19.875 105.671875 -22.1875 C 106.398438 -24.507812 106.765625 -26.46875 106.765625 -28.0625 L 109.15625 -28.0625 L 109.15625 0 L 10.796875 0 Z M 10.796875 -2.40625 "/></g></g></g><g fill="#ffffff" fill-opacity="1"><g transform="translate(2027.84992, 2321.241575)"><g><path d="M 12.953125 -22.3125 C 17.585938 -22.3125 20.984375 -20.710938 23.140625 -17.515625 C 25.304688 -14.316406 26.390625 -10.640625 26.390625 -6.484375 C 26.390625 -4.078125 26.066406 -1.394531 25.421875 1.5625 C 24.785156 4.519531 23.546875 7.476562 21.703125 10.4375 C 19.867188 13.394531 17.234375 16.351562 13.796875 19.3125 C 10.359375 22.269531 5.835938 25.03125 0.234375 27.59375 L -0.953125 25.4375 C 2.242188 22.550781 4.757812 19.945312 6.59375 17.625 C 8.4375 15.3125 9.796875 13.234375 10.671875 11.390625 C 11.554688 9.554688 12.117188 7.835938 12.359375 6.234375 C 12.597656 4.640625 12.71875 2.960938 12.71875 1.203125 C 12.71875 -0.078125 12.316406 -1.078125 11.515625 -1.796875 C 10.710938 -2.515625 9.832031 -3.195312 8.875 -3.84375 C 7.59375 -4.632812 6.3125 -5.550781 5.03125 -6.59375 C 3.757812 -7.632812 3.125 -9.4375 3.125 -12 C 3.125 -15.03125 4.082031 -17.503906 6 -19.421875 C 7.914062 -21.347656 10.234375 -22.3125 12.953125 -22.3125 Z M 12.953125 -22.3125 "/></g></g></g><g fill="#ffffff" fill-opacity="1"><g transform="translate(2056.878698, 2321.241575)"><g/></g></g><g fill="#ffffff" fill-opacity="1"><g transform="translate(2119.254502, 2321.241575)"><g><path d="M 107.953125 -42.46875 C 107.953125 -34.46875 106.351562 -27.628906 103.15625 -21.953125 C 99.957031 -16.273438 95.835938 -11.675781 90.796875 -8.15625 C 85.765625 -4.632812 80.085938 -2.070312 73.765625 -0.46875 C 67.453125 1.125 61.175781 1.921875 54.9375 1.921875 C 48.539062 1.921875 43.019531 1.28125 38.375 0 C 33.738281 -1.28125 29.503906 -2.476562 25.671875 -3.59375 C 23.109375 -4.394531 20.785156 -5.078125 18.703125 -5.640625 C 16.628906 -6.203125 14.550781 -6.484375 12.46875 -6.484375 L 12.46875 -33.828125 L 14.875 -33.828125 C 14.875 -27.742188 16.429688 -22.90625 19.546875 -19.3125 C 22.671875 -15.71875 26.3125 -12.957031 30.46875 -11.03125 C 34.625 -9.113281 38.78125 -7.875 42.9375 -7.3125 C 47.101562 -6.757812 50.144531 -6.484375 52.0625 -6.484375 C 58.9375 -6.484375 64.851562 -7.476562 69.8125 -9.46875 C 74.769531 -11.46875 78.847656 -14.109375 82.046875 -17.390625 C 85.242188 -20.671875 87.601562 -24.3125 89.125 -28.3125 C 90.644531 -32.3125 91.40625 -36.390625 91.40625 -40.546875 C 91.40625 -45.828125 90.285156 -50.265625 88.046875 -53.859375 C 85.804688 -57.453125 82.882812 -60.609375 79.28125 -63.328125 C 75.6875 -66.046875 71.570312 -68.363281 66.9375 -70.28125 C 62.300781 -72.207031 57.582031 -74.128906 52.78125 -76.046875 C 47.34375 -78.128906 41.984375 -80.289062 36.703125 -82.53125 C 31.421875 -84.769531 26.703125 -87.523438 22.546875 -90.796875 C 18.390625 -94.078125 15.03125 -97.992188 12.46875 -102.546875 C 9.914062 -107.109375 8.640625 -112.75 8.640625 -119.46875 C 8.640625 -126.507812 10 -132.628906 12.71875 -137.828125 C 15.4375 -143.023438 19.070312 -147.300781 23.625 -150.65625 C 28.1875 -154.019531 33.382812 -156.539062 39.21875 -158.21875 C 45.0625 -159.894531 51.019531 -160.734375 57.09375 -160.734375 C 61.25 -160.734375 65.164062 -160.453125 68.84375 -159.890625 C 72.53125 -159.335938 76.050781 -158.660156 79.40625 -157.859375 C 82.125 -157.222656 84.765625 -156.703125 87.328125 -156.296875 C 89.890625 -155.898438 92.367188 -155.703125 94.765625 -155.703125 L 94.765625 -130.984375 L 92.359375 -130.984375 C 92.046875 -139.304688 88.769531 -144.945312 82.53125 -147.90625 C 76.289062 -150.863281 67.65625 -152.34375 56.625 -152.34375 C 50.21875 -152.34375 44.972656 -151.257812 40.890625 -149.09375 C 36.816406 -146.9375 33.582031 -144.296875 31.1875 -141.171875 C 28.789062 -138.054688 27.148438 -134.695312 26.265625 -131.09375 C 25.390625 -127.5 24.953125 -124.34375 24.953125 -121.625 C 24.953125 -117.15625 25.953125 -113.316406 27.953125 -110.109375 C 29.953125 -106.910156 32.628906 -104.113281 35.984375 -101.71875 C 39.347656 -99.320312 43.226562 -97.160156 47.625 -95.234375 C 52.019531 -93.316406 56.617188 -91.476562 61.421875 -89.71875 C 66.859375 -87.644531 72.375 -85.40625 77.96875 -83 C 83.5625 -80.601562 88.554688 -77.644531 92.953125 -74.125 C 97.359375 -70.613281 100.957031 -66.296875 103.75 -61.171875 C 106.550781 -56.054688 107.953125 -49.820312 107.953125 -42.46875 Z M 107.953125 -42.46875 "/></g></g></g><g fill="#ffffff" fill-opacity="1"><g transform="translate(2236.808907, 2321.241575)"><g><path d="M 102.4375 -2.40625 L 103.640625 -2.40625 C 107.472656 -2.40625 109.390625 -4.160156 109.390625 -7.671875 C 109.390625 -8.953125 109.148438 -10.3125 108.671875 -11.75 L 87.09375 -70.046875 L 45.109375 -70.046875 L 24.234375 -12.71875 C 23.753906 -11.4375 23.515625 -10.234375 23.515625 -9.109375 C 23.515625 -7.035156 24.070312 -5.398438 25.1875 -4.203125 C 26.3125 -3.003906 27.507812 -2.40625 28.78125 -2.40625 L 29.984375 -2.40625 L 29.984375 0 L 3.359375 0 L 3.359375 -2.40625 L 4.5625 -2.40625 C 6.632812 -2.40625 8.671875 -3.644531 10.671875 -6.125 C 12.671875 -8.601562 14.3125 -11.519531 15.59375 -14.875 L 70.53125 -161.21875 L 124.265625 -16.3125 C 125.390625 -13.113281 126.953125 -9.992188 128.953125 -6.953125 C 130.953125 -3.921875 133.550781 -2.40625 136.75 -2.40625 L 137.953125 -2.40625 L 137.953125 0 L 102.4375 0 Z M 47.5 -78.203125 L 84.453125 -78.203125 L 65.96875 -128.34375 Z M 47.5 -78.203125 "/></g></g></g><g fill="#ffffff" fill-opacity="1"><g transform="translate(2378.354053, 2321.241575)"><g><path d="M 10.796875 -2.40625 L 12 -2.40625 C 13.113281 -2.40625 14.148438 -2.882812 15.109375 -3.84375 C 16.066406 -4.800781 16.90625 -5.914062 17.625 -7.1875 C 18.351562 -8.46875 18.875 -9.867188 19.1875 -11.390625 C 19.507812 -12.910156 19.671875 -14.3125 19.671875 -15.59375 L 19.671875 -143.21875 C 19.671875 -144.34375 19.507812 -145.625 19.1875 -147.0625 C 18.875 -148.5 18.351562 -149.894531 17.625 -151.25 C 16.90625 -152.613281 16.023438 -153.734375 14.984375 -154.609375 C 13.953125 -155.492188 12.796875 -155.9375 11.515625 -155.9375 L 10.3125 -155.9375 L 10.3125 -158.34375 L 49.65625 -158.34375 C 64.53125 -158.34375 76.164062 -155.0625 84.5625 -148.5 C 92.957031 -141.945312 97.15625 -133.234375 97.15625 -122.359375 C 97.15625 -117.710938 96.351562 -113.550781 94.75 -109.875 C 93.15625 -106.195312 91.117188 -102.914062 88.640625 -100.03125 C 86.160156 -97.15625 83.484375 -94.71875 80.609375 -92.71875 C 77.734375 -90.71875 75.015625 -89.082031 72.453125 -87.8125 C 79.171875 -86.53125 84.769531 -84.367188 89.25 -81.328125 C 93.726562 -78.285156 97.363281 -74.804688 100.15625 -70.890625 C 102.957031 -66.972656 104.914062 -62.773438 106.03125 -58.296875 C 107.15625 -53.816406 107.71875 -49.421875 107.71875 -45.109375 C 107.71875 -36.785156 106.195312 -29.785156 103.15625 -24.109375 C 100.113281 -18.429688 96.070312 -13.789062 91.03125 -10.1875 C 86 -6.59375 80.242188 -3.992188 73.765625 -2.390625 C 67.296875 -0.796875 60.617188 0 53.734375 0 L 10.796875 0 Z M 91.40625 -43.65625 C 90.125 -55.976562 85.960938 -65.492188 78.921875 -72.203125 C 71.890625 -78.921875 61.976562 -82.28125 49.1875 -82.28125 L 35.75 -82.28125 L 35.75 -7.921875 L 49.65625 -7.921875 C 62.613281 -7.921875 72.8125 -10.835938 80.25 -16.671875 C 87.6875 -22.515625 91.40625 -30.632812 91.40625 -41.03125 Z M 81.5625 -120.1875 C 81.082031 -129.46875 77.84375 -136.828125 71.84375 -142.265625 C 65.851562 -147.703125 57.816406 -150.421875 47.734375 -150.421875 L 35.75 -150.421875 L 35.75 -89.96875 L 48.21875 -89.96875 C 54.9375 -89.96875 60.414062 -90.847656 64.65625 -92.609375 C 68.894531 -94.367188 72.289062 -96.644531 74.84375 -99.4375 C 77.40625 -102.238281 79.164062 -105.316406 80.125 -108.671875 C 81.082031 -112.035156 81.5625 -115.316406 81.5625 -118.515625 Z M 81.5625 -120.1875 "/></g></g></g><g fill="#ffffff" fill-opacity="1"><g transform="translate(2495.66859, 2321.241575)"><g><path d="M 91.640625 -160.734375 C 104.117188 -160.734375 115.316406 -158.535156 125.234375 -154.140625 C 135.148438 -149.742188 143.585938 -143.828125 150.546875 -136.390625 C 157.503906 -128.953125 162.859375 -120.3125 166.609375 -110.46875 C 170.367188 -100.632812 172.25 -90.363281 172.25 -79.65625 C 172.25 -67.65625 170.050781 -56.613281 165.65625 -46.53125 C 161.257812 -36.457031 155.222656 -27.820312 147.546875 -20.625 C 139.867188 -13.4375 130.953125 -7.800781 120.796875 -3.71875 C 110.640625 0.363281 99.800781 2.40625 88.28125 2.40625 C 75.96875 2.40625 64.890625 0.164062 55.046875 -4.3125 C 45.210938 -8.789062 36.894531 -14.707031 30.09375 -22.0625 C 23.300781 -29.425781 18.066406 -37.90625 14.390625 -47.5 C 10.710938 -57.09375 8.875 -67.085938 8.875 -77.484375 C 8.875 -87.722656 10.710938 -97.835938 14.390625 -107.828125 C 18.066406 -117.828125 23.460938 -126.742188 30.578125 -134.578125 C 37.703125 -142.421875 46.378906 -148.738281 56.609375 -153.53125 C 66.847656 -158.332031 78.523438 -160.734375 91.640625 -160.734375 Z M 91.40625 -6 C 102.125 -6.476562 111.519531 -8.914062 119.59375 -13.3125 C 127.664062 -17.707031 134.421875 -23.300781 139.859375 -30.09375 C 145.296875 -36.894531 149.332031 -44.375 151.96875 -52.53125 C 154.613281 -60.695312 155.9375 -68.773438 155.9375 -76.765625 C 155.9375 -85.566406 154.335938 -94.441406 151.140625 -103.390625 C 147.941406 -112.347656 143.382812 -120.46875 137.46875 -127.75 C 131.550781 -135.03125 124.472656 -140.945312 116.234375 -145.5 C 107.992188 -150.0625 98.757812 -152.34375 88.53125 -152.34375 C 78.613281 -152.34375 69.734375 -150.140625 61.890625 -145.734375 C 54.054688 -141.335938 47.378906 -135.703125 41.859375 -128.828125 C 36.347656 -121.953125 32.148438 -114.273438 29.265625 -105.796875 C 26.390625 -97.316406 24.953125 -89 24.953125 -80.84375 C 24.953125 -72.050781 26.628906 -63.21875 29.984375 -54.34375 C 33.347656 -45.46875 37.988281 -37.429688 43.90625 -30.234375 C 49.820312 -23.035156 56.816406 -17.195312 64.890625 -12.71875 C 72.972656 -8.238281 81.8125 -6 91.40625 -6 Z M 91.40625 -6 "/></g></g></g><g fill="#ffffff" fill-opacity="1"><g transform="translate(2678.237884, 2321.241575)"><g><path d="M 43.421875 -2.40625 L 44.625 -2.40625 L 44.625 0 L 10.796875 0 L 10.796875 -2.40625 L 12 -2.40625 C 13.113281 -2.40625 14.148438 -2.882812 15.109375 -3.84375 C 16.066406 -4.800781 16.90625 -5.914062 17.625 -7.1875 C 18.351562 -8.46875 18.875 -9.867188 19.1875 -11.390625 C 19.507812 -12.910156 19.671875 -14.3125 19.671875 -15.59375 L 19.671875 -143.46875 C 19.671875 -144.582031 19.507812 -145.859375 19.1875 -147.296875 C 18.875 -148.742188 18.351562 -150.101562 17.625 -151.375 C 16.90625 -152.65625 16.066406 -153.734375 15.109375 -154.609375 C 14.148438 -155.492188 13.113281 -155.9375 12 -155.9375 L 10.796875 -155.9375 L 10.796875 -158.34375 L 52.546875 -158.34375 C 68.535156 -158.34375 80.890625 -155.222656 89.609375 -148.984375 C 98.328125 -142.742188 102.6875 -133.546875 102.6875 -121.390625 C 102.6875 -115.316406 101.6875 -110 99.6875 -105.4375 C 97.6875 -100.875 95.003906 -96.953125 91.640625 -93.671875 C 88.285156 -90.398438 84.328125 -87.765625 79.765625 -85.765625 C 75.210938 -83.765625 70.375 -82.285156 65.25 -81.328125 L 82.53125 -54.9375 C 86.6875 -48.539062 90.921875 -42.265625 95.234375 -36.109375 C 99.554688 -29.953125 103.796875 -23.59375 107.953125 -17.03125 C 109.078125 -15.4375 110.316406 -13.757812 111.671875 -12 C 113.035156 -10.238281 114.476562 -8.632812 116 -7.1875 C 117.519531 -5.75 119.117188 -4.59375 120.796875 -3.71875 C 122.472656 -2.84375 124.191406 -2.40625 125.953125 -2.40625 L 125.953125 0 L 115.640625 0 C 109.234375 0 103.988281 -1.554688 99.90625 -4.671875 C 95.832031 -7.796875 92.4375 -11.4375 89.71875 -15.59375 C 82.519531 -26.144531 75.363281 -36.859375 68.25 -47.734375 C 61.132812 -58.617188 54.054688 -69.335938 47.015625 -79.890625 C 45.253906 -80.046875 43.375 -80.242188 41.375 -80.484375 C 39.382812 -80.722656 37.507812 -81.003906 35.75 -81.328125 L 35.75 -15.59375 C 35.75 -14.3125 35.90625 -12.910156 36.21875 -11.390625 C 36.539062 -9.867188 37.0625 -8.46875 37.78125 -7.1875 C 38.5 -5.914062 39.296875 -4.800781 40.171875 -3.84375 C 41.054688 -2.882812 42.140625 -2.40625 43.421875 -2.40625 Z M 35.75 -150.1875 L 35.75 -89.25 L 36.953125 -89.25 C 38.222656 -89.082031 40.257812 -88.957031 43.0625 -88.875 C 45.863281 -88.800781 49.34375 -88.765625 53.5 -88.765625 C 56.851562 -88.765625 60.410156 -89.285156 64.171875 -90.328125 C 67.929688 -91.367188 71.453125 -93.128906 74.734375 -95.609375 C 78.015625 -98.085938 80.734375 -101.320312 82.890625 -105.3125 C 85.046875 -109.3125 86.125 -114.351562 86.125 -120.4375 C 86.125 -126.507812 84.960938 -131.460938 82.640625 -135.296875 C 80.328125 -139.140625 77.128906 -142.179688 73.046875 -144.421875 C 68.972656 -146.660156 64.054688 -148.179688 58.296875 -148.984375 C 52.535156 -149.785156 46.21875 -150.1875 39.34375 -150.1875 Z M 35.75 -150.1875 "/></g></g></g><g fill="#ffffff" fill-opacity="1"><g transform="translate(2807.787748, 2321.241575)"><g><path d="M 10.796875 -2.40625 L 12 -2.40625 C 13.28125 -2.40625 14.398438 -2.84375 15.359375 -3.71875 C 16.316406 -4.59375 17.15625 -5.671875 17.875 -6.953125 C 18.59375 -8.234375 19.148438 -9.59375 19.546875 -11.03125 C 19.953125 -12.46875 20.15625 -13.828125 20.15625 -15.109375 L 20.15625 -143.46875 C 20.15625 -144.582031 19.953125 -145.859375 19.546875 -147.296875 C 19.148438 -148.742188 18.59375 -150.101562 17.875 -151.375 C 17.15625 -152.65625 16.316406 -153.734375 15.359375 -154.609375 C 14.398438 -155.492188 13.28125 -155.9375 12 -155.9375 L 10.796875 -155.9375 L 10.796875 -158.34375 L 103.15625 -158.34375 L 103.15625 -136.03125 L 100.765625 -136.03125 C 100.441406 -139.707031 99 -142.941406 96.4375 -145.734375 C 93.882812 -148.535156 89.890625 -149.9375 84.453125 -149.9375 L 36.21875 -149.9375 L 36.21875 -89.25 L 76.046875 -89.25 C 79.722656 -89.25 82.800781 -90.367188 85.28125 -92.609375 C 87.757812 -94.847656 89 -97.484375 89 -100.515625 L 91.40625 -100.515625 L 91.40625 -70.53125 L 89 -70.53125 C 89 -73.40625 87.800781 -75.882812 85.40625 -77.96875 C 83.007812 -80.050781 79.890625 -81.09375 76.046875 -81.09375 L 36.21875 -81.09375 L 36.21875 -8.390625 L 88.765625 -8.390625 C 91.804688 -8.390625 94.445312 -9.109375 96.6875 -10.546875 C 98.925781 -11.992188 100.800781 -13.71875 102.3125 -15.71875 C 103.832031 -17.71875 104.953125 -19.875 105.671875 -22.1875 C 106.398438 -24.507812 106.765625 -26.46875 106.765625 -28.0625 L 109.15625 -28.0625 L 109.15625 0 L 10.796875 0 Z M 10.796875 -2.40625 "/></g></g></g><g fill="#ffffff" fill-opacity="1"><g transform="translate(2924.142633, 2321.241575)"><g><path d="M 11.75 -158.34375 L 46.0625 -158.34375 L 46.0625 -155.9375 L 44.859375 -155.9375 C 43.742188 -155.9375 42.703125 -155.492188 41.734375 -154.609375 C 40.773438 -153.734375 39.976562 -152.695312 39.34375 -151.5 C 38.707031 -150.300781 38.1875 -148.941406 37.78125 -147.421875 C 37.382812 -145.898438 37.1875 -144.582031 37.1875 -143.46875 L 37.1875 -15.59375 C 37.1875 -14.3125 37.34375 -12.910156 37.65625 -11.390625 C 37.976562 -9.867188 38.5 -8.46875 39.21875 -7.1875 C 39.9375 -5.914062 40.734375 -4.800781 41.609375 -3.84375 C 42.492188 -2.882812 43.578125 -2.40625 44.859375 -2.40625 L 46.0625 -2.40625 L 46.0625 0 L 11.75 0 L 11.75 -2.40625 L 12.953125 -2.40625 C 14.234375 -2.40625 15.351562 -2.84375 16.3125 -3.71875 C 17.269531 -4.59375 18.109375 -5.707031 18.828125 -7.0625 C 19.546875 -8.425781 20.066406 -9.867188 20.390625 -11.390625 C 20.710938 -12.910156 20.875 -14.3125 20.875 -15.59375 L 20.875 -143.46875 C 20.875 -144.582031 20.710938 -145.859375 20.390625 -147.296875 C 20.066406 -148.742188 19.546875 -150.101562 18.828125 -151.375 C 18.109375 -152.65625 17.269531 -153.734375 16.3125 -154.609375 C 15.351562 -155.492188 14.234375 -155.9375 12.953125 -155.9375 L 11.75 -155.9375 Z M 11.75 -158.34375 "/></g></g></g><g fill="#ffffff" fill-opacity="1"><g transform="translate(2982.439964, 2321.241575)"><g><path d="M 10.796875 -2.40625 L 12 -2.40625 C 13.28125 -2.40625 14.398438 -2.84375 15.359375 -3.71875 C 16.316406 -4.59375 17.15625 -5.671875 17.875 -6.953125 C 18.59375 -8.234375 19.148438 -9.59375 19.546875 -11.03125 C 19.953125 -12.46875 20.15625 -13.828125 20.15625 -15.109375 L 20.15625 -143.46875 C 20.15625 -144.582031 19.953125 -145.859375 19.546875 -147.296875 C 19.148438 -148.742188 18.59375 -150.101562 17.875 -151.375 C 17.15625 -152.65625 16.316406 -153.734375 15.359375 -154.609375 C 14.398438 -155.492188 13.28125 -155.9375 12 -155.9375 L 10.796875 -155.9375 L 10.796875 -158.34375 L 103.15625 -158.34375 L 103.15625 -136.03125 L 100.765625 -136.03125 C 100.441406 -139.707031 99 -142.941406 96.4375 -145.734375 C 93.882812 -148.535156 89.890625 -149.9375 84.453125 -149.9375 L 36.21875 -149.9375 L 36.21875 -89.25 L 76.046875 -89.25 C 79.722656 -89.25 82.800781 -90.367188 85.28125 -92.609375 C 87.757812 -94.847656 89 -97.484375 89 -100.515625 L 91.40625 -100.515625 L 91.40625 -70.53125 L 89 -70.53125 C 89 -73.40625 87.800781 -75.882812 85.40625 -77.96875 C 83.007812 -80.050781 79.890625 -81.09375 76.046875 -81.09375 L 36.21875 -81.09375 L 36.21875 -8.390625 L 88.765625 -8.390625 C 91.804688 -8.390625 94.445312 -9.109375 96.6875 -10.546875 C 98.925781 -11.992188 100.800781 -13.71875 102.3125 -15.71875 C 103.832031 -17.71875 104.953125 -19.875 105.671875 -22.1875 C 106.398438 -24.507812 106.765625 -26.46875 106.765625 -28.0625 L 109.15625 -28.0625 L 109.15625 0 L 10.796875 0 Z M 10.796875 -2.40625 "/></g></g></g><g fill="#ffffff" fill-opacity="1"><g transform="translate(3098.79485, 2321.241575)"><g><path d="M 12.953125 -22.3125 C 17.585938 -22.3125 20.984375 -20.710938 23.140625 -17.515625 C 25.304688 -14.316406 26.390625 -10.640625 26.390625 -6.484375 C 26.390625 -4.078125 26.066406 -1.394531 25.421875 1.5625 C 24.785156 4.519531 23.546875 7.476562 21.703125 10.4375 C 19.867188 13.394531 17.234375 16.351562 13.796875 19.3125 C 10.359375 22.269531 5.835938 25.03125 0.234375 27.59375 L -0.953125 25.4375 C 2.242188 22.550781 4.757812 19.945312 6.59375 17.625 C 8.4375 15.3125 9.796875 13.234375 10.671875 11.390625 C 11.554688 9.554688 12.117188 7.835938 12.359375 6.234375 C 12.597656 4.640625 12.71875 2.960938 12.71875 1.203125 C 12.71875 -0.078125 12.316406 -1.078125 11.515625 -1.796875 C 10.710938 -2.515625 9.832031 -3.195312 8.875 -3.84375 C 7.59375 -4.632812 6.3125 -5.550781 5.03125 -6.59375 C 3.757812 -7.632812 3.125 -9.4375 3.125 -12 C 3.125 -15.03125 4.082031 -17.503906 6 -19.421875 C 7.914062 -21.347656 10.234375 -22.3125 12.953125 -22.3125 Z M 12.953125 -22.3125 "/></g></g></g><g fill="#ffffff" fill-opacity="1"><g transform="translate(3127.823627, 2321.241575)"><g/></g></g><g fill="#ffffff" fill-opacity="1"><g transform="translate(3190.199523, 2321.241575)"><g><path d="M 43.421875 -2.40625 L 44.625 -2.40625 L 44.625 0 L 10.796875 0 L 10.796875 -2.40625 L 12 -2.40625 C 13.113281 -2.40625 14.148438 -2.882812 15.109375 -3.84375 C 16.066406 -4.800781 16.90625 -5.914062 17.625 -7.1875 C 18.351562 -8.46875 18.875 -9.867188 19.1875 -11.390625 C 19.507812 -12.910156 19.671875 -14.3125 19.671875 -15.59375 L 19.671875 -143.46875 C 19.671875 -144.582031 19.507812 -145.859375 19.1875 -147.296875 C 18.875 -148.742188 18.351562 -150.101562 17.625 -151.375 C 16.90625 -152.65625 16.066406 -153.734375 15.109375 -154.609375 C 14.148438 -155.492188 13.113281 -155.9375 12 -155.9375 L 10.796875 -155.9375 L 10.796875 -158.34375 L 52.546875 -158.34375 C 68.535156 -158.34375 80.890625 -155.222656 89.609375 -148.984375 C 98.328125 -142.742188 102.6875 -133.546875 102.6875 -121.390625 C 102.6875 -115.316406 101.6875 -110 99.6875 -105.4375 C 97.6875 -100.875 95.003906 -96.953125 91.640625 -93.671875 C 88.285156 -90.398438 84.328125 -87.765625 79.765625 -85.765625 C 75.210938 -83.765625 70.375 -82.285156 65.25 -81.328125 L 82.53125 -54.9375 C 86.6875 -48.539062 90.921875 -42.265625 95.234375 -36.109375 C 99.554688 -29.953125 103.796875 -23.59375 107.953125 -17.03125 C 109.078125 -15.4375 110.316406 -13.757812 111.671875 -12 C 113.035156 -10.238281 114.476562 -8.632812 116 -7.1875 C 117.519531 -5.75 119.117188 -4.59375 120.796875 -3.71875 C 122.472656 -2.84375 124.191406 -2.40625 125.953125 -2.40625 L 125.953125 0 L 115.640625 0 C 109.234375 0 103.988281 -1.554688 99.90625 -4.671875 C 95.832031 -7.796875 92.4375 -11.4375 89.71875 -15.59375 C 82.519531 -26.144531 75.363281 -36.859375 68.25 -47.734375 C 61.132812 -58.617188 54.054688 -69.335938 47.015625 -79.890625 C 45.253906 -80.046875 43.375 -80.242188 41.375 -80.484375 C 39.382812 -80.722656 37.507812 -81.003906 35.75 -81.328125 L 35.75 -15.59375 C 35.75 -14.3125 35.90625 -12.910156 36.21875 -11.390625 C 36.539062 -9.867188 37.0625 -8.46875 37.78125 -7.1875 C 38.5 -5.914062 39.296875 -4.800781 40.171875 -3.84375 C 41.054688 -2.882812 42.140625 -2.40625 43.421875 -2.40625 Z M 35.75 -150.1875 L 35.75 -89.25 L 36.953125 -89.25 C 38.222656 -89.082031 40.257812 -88.957031 43.0625 -88.875 C 45.863281 -88.800781 49.34375 -88.765625 53.5 -88.765625 C 56.851562 -88.765625 60.410156 -89.285156 64.171875 -90.328125 C 67.929688 -91.367188 71.453125 -93.128906 74.734375 -95.609375 C 78.015625 -98.085938 80.734375 -101.320312 82.890625 -105.3125 C 85.046875 -109.3125 86.125 -114.351562 86.125 -120.4375 C 86.125 -126.507812 84.960938 -131.460938 82.640625 -135.296875 C 80.328125 -139.140625 77.128906 -142.179688 73.046875 -144.421875 C 68.972656 -146.660156 64.054688 -148.179688 58.296875 -148.984375 C 52.535156 -149.785156 46.21875 -150.1875 39.34375 -150.1875 Z M 35.75 -150.1875 "/></g></g></g><g fill="#ffffff" fill-opacity="1"><g transform="translate(3319.749387, 2321.241575)"><g><path d="M 10.796875 -2.40625 L 12 -2.40625 C 13.28125 -2.40625 14.398438 -2.84375 15.359375 -3.71875 C 16.316406 -4.59375 17.15625 -5.671875 17.875 -6.953125 C 18.59375 -8.234375 19.148438 -9.59375 19.546875 -11.03125 C 19.953125 -12.46875 20.15625 -13.828125 20.15625 -15.109375 L 20.15625 -143.46875 C 20.15625 -144.582031 19.953125 -145.859375 19.546875 -147.296875 C 19.148438 -148.742188 18.59375 -150.101562 17.875 -151.375 C 17.15625 -152.65625 16.316406 -153.734375 15.359375 -154.609375 C 14.398438 -155.492188 13.28125 -155.9375 12 -155.9375 L 10.796875 -155.9375 L 10.796875 -158.34375 L 103.15625 -158.34375 L 103.15625 -136.03125 L 100.765625 -136.03125 C 100.441406 -139.707031 99 -142.941406 96.4375 -145.734375 C 93.882812 -148.535156 89.890625 -149.9375 84.453125 -149.9375 L 36.21875 -149.9375 L 36.21875 -89.25 L 76.046875 -89.25 C 79.722656 -89.25 82.800781 -90.367188 85.28125 -92.609375 C 87.757812 -94.847656 89 -97.484375 89 -100.515625 L 91.40625 -100.515625 L 91.40625 -70.53125 L 89 -70.53125 C 89 -73.40625 87.800781 -75.882812 85.40625 -77.96875 C 83.007812 -80.050781 79.890625 -81.09375 76.046875 -81.09375 L 36.21875 -81.09375 L 36.21875 -8.390625 L 88.765625 -8.390625 C 91.804688 -8.390625 94.445312 -9.109375 96.6875 -10.546875 C 98.925781 -11.992188 100.800781 -13.71875 102.3125 -15.71875 C 103.832031 -17.71875 104.953125 -19.875 105.671875 -22.1875 C 106.398438 -24.507812 106.765625 -26.46875 106.765625 -28.0625 L 109.15625 -28.0625 L 109.15625 0 L 10.796875 0 Z M 10.796875 -2.40625 "/></g></g></g><g fill="#ffffff" fill-opacity="1"><g transform="translate(3436.104273, 2321.241575)"><g><path d="M 10.5625 -158.34375 L 44.625 -158.34375 C 62.375 -158.34375 75.847656 -154.941406 85.046875 -148.140625 C 94.242188 -141.347656 98.84375 -131.710938 98.84375 -119.234375 C 98.84375 -112.515625 97.242188 -106.515625 94.046875 -101.234375 C 90.847656 -95.960938 86.648438 -91.523438 81.453125 -87.921875 C 76.253906 -84.328125 70.414062 -81.566406 63.9375 -79.640625 C 57.457031 -77.722656 51.019531 -76.765625 44.625 -76.765625 L 35.5 -76.765625 L 35.5 -15.59375 C 35.5 -14.3125 35.660156 -12.910156 35.984375 -11.390625 C 36.304688 -9.867188 36.828125 -8.46875 37.546875 -7.1875 C 38.265625 -5.914062 39.0625 -4.800781 39.9375 -3.84375 C 40.820312 -2.882812 41.90625 -2.40625 43.1875 -2.40625 L 44.375 -2.40625 L 44.375 0 L 10.5625 0 L 10.5625 -2.40625 L 11.75 -2.40625 C 12.875 -2.40625 13.914062 -2.882812 14.875 -3.84375 C 15.832031 -4.800781 16.628906 -5.914062 17.265625 -7.1875 C 17.910156 -8.46875 18.390625 -9.867188 18.703125 -11.390625 C 19.023438 -12.910156 19.1875 -14.3125 19.1875 -15.59375 L 19.1875 -143.46875 C 19.1875 -145.707031 18.546875 -148.265625 17.265625 -151.140625 C 15.992188 -154.015625 14.15625 -155.613281 11.75 -155.9375 L 10.5625 -155.9375 Z M 35.5 -149.9375 L 35.5 -85.171875 L 42.703125 -85.171875 C 49.097656 -85.171875 54.8125 -86.046875 59.84375 -87.796875 C 64.882812 -89.554688 69.082031 -91.875 72.4375 -94.75 C 75.800781 -97.632812 78.363281 -100.914062 80.125 -104.59375 C 81.882812 -108.269531 82.765625 -112.03125 82.765625 -115.875 C 82.765625 -120.507812 82.003906 -124.863281 80.484375 -128.9375 C 78.960938 -133.019531 76.484375 -136.617188 73.046875 -139.734375 C 69.609375 -142.859375 65.085938 -145.335938 59.484375 -147.171875 C 53.890625 -149.015625 47.015625 -149.9375 38.859375 -149.9375 Z M 35.5 -149.9375 "/></g></g></g><g fill="#ffffff" fill-opacity="1"><g transform="translate(3544.542169, 2321.241575)"><g><path d="M 11.75 -158.34375 L 46.0625 -158.34375 L 46.0625 -155.9375 L 44.859375 -155.9375 C 43.742188 -155.9375 42.703125 -155.492188 41.734375 -154.609375 C 40.773438 -153.734375 39.976562 -152.695312 39.34375 -151.5 C 38.707031 -150.300781 38.1875 -148.941406 37.78125 -147.421875 C 37.382812 -145.898438 37.1875 -144.582031 37.1875 -143.46875 L 37.1875 -15.59375 C 37.1875 -14.3125 37.34375 -12.910156 37.65625 -11.390625 C 37.976562 -9.867188 38.5 -8.46875 39.21875 -7.1875 C 39.9375 -5.914062 40.734375 -4.800781 41.609375 -3.84375 C 42.492188 -2.882812 43.578125 -2.40625 44.859375 -2.40625 L 46.0625 -2.40625 L 46.0625 0 L 11.75 0 L 11.75 -2.40625 L 12.953125 -2.40625 C 14.234375 -2.40625 15.351562 -2.84375 16.3125 -3.71875 C 17.269531 -4.59375 18.109375 -5.707031 18.828125 -7.0625 C 19.546875 -8.425781 20.066406 -9.867188 20.390625 -11.390625 C 20.710938 -12.910156 20.875 -14.3125 20.875 -15.59375 L 20.875 -143.46875 C 20.875 -144.582031 20.710938 -145.859375 20.390625 -147.296875 C 20.066406 -148.742188 19.546875 -150.101562 18.828125 -151.375 C 18.109375 -152.65625 17.269531 -153.734375 16.3125 -154.609375 C 15.351562 -155.492188 14.234375 -155.9375 12.953125 -155.9375 L 11.75 -155.9375 Z M 11.75 -158.34375 "/></g></g></g><g fill="#ffffff" fill-opacity="1"><g transform="translate(3602.839499, 2321.241575)"><g><path d="M 71.484375 -2.40625 L 72.6875 -2.40625 L 72.6875 0 L 38.625 0 L 38.625 -2.40625 L 39.828125 -2.40625 C 41.109375 -2.40625 42.226562 -2.882812 43.1875 -3.84375 C 44.144531 -4.800781 44.984375 -5.914062 45.703125 -7.1875 C 46.421875 -8.46875 46.9375 -9.867188 47.25 -11.390625 C 47.570312 -12.910156 47.734375 -14.3125 47.734375 -15.59375 L 47.734375 -149.46875 L 19.90625 -149.46875 C 17.351562 -149.46875 15.113281 -148.90625 13.1875 -147.78125 C 11.269531 -146.664062 9.671875 -145.265625 8.390625 -143.578125 C 7.117188 -141.898438 6.160156 -140.0625 5.515625 -138.0625 C 4.878906 -136.0625 4.5625 -134.101562 4.5625 -132.1875 L 2.15625 -132.1875 L 2.15625 -158.34375 L 109.875 -158.34375 L 109.875 -132.1875 L 107.484375 -132.1875 C 107.484375 -134.101562 107.160156 -136.0625 106.515625 -138.0625 C 105.878906 -140.0625 104.921875 -141.898438 103.640625 -143.578125 C 102.359375 -145.265625 100.757812 -146.664062 98.84375 -147.78125 C 96.925781 -148.90625 94.6875 -149.46875 92.125 -149.46875 L 63.8125 -149.46875 L 63.8125 -15.59375 C 63.8125 -14.3125 63.972656 -12.910156 64.296875 -11.390625 C 64.617188 -9.867188 65.140625 -8.46875 65.859375 -7.1875 C 66.578125 -5.914062 67.375 -4.800781 68.25 -3.84375 C 69.132812 -2.882812 70.210938 -2.40625 71.484375 -2.40625 Z M 71.484375 -2.40625 "/></g></g></g><g fill="#ffffff" fill-opacity="1"><g transform="translate(3715.116003, 2321.241575)"><g><path d="M 102.4375 -2.40625 L 103.640625 -2.40625 C 107.472656 -2.40625 109.390625 -4.160156 109.390625 -7.671875 C 109.390625 -8.953125 109.148438 -10.3125 108.671875 -11.75 L 87.09375 -70.046875 L 45.109375 -70.046875 L 24.234375 -12.71875 C 23.753906 -11.4375 23.515625 -10.234375 23.515625 -9.109375 C 23.515625 -7.035156 24.070312 -5.398438 25.1875 -4.203125 C 26.3125 -3.003906 27.507812 -2.40625 28.78125 -2.40625 L 29.984375 -2.40625 L 29.984375 0 L 3.359375 0 L 3.359375 -2.40625 L 4.5625 -2.40625 C 6.632812 -2.40625 8.671875 -3.644531 10.671875 -6.125 C 12.671875 -8.601562 14.3125 -11.519531 15.59375 -14.875 L 70.53125 -161.21875 L 124.265625 -16.3125 C 125.390625 -13.113281 126.953125 -9.992188 128.953125 -6.953125 C 130.953125 -3.921875 133.550781 -2.40625 136.75 -2.40625 L 137.953125 -2.40625 L 137.953125 0 L 102.4375 0 Z M 47.5 -78.203125 L 84.453125 -78.203125 L 65.96875 -128.34375 Z M 47.5 -78.203125 "/></g></g></g><g fill="#ffffff" fill-opacity="1"><g transform="translate(3856.661058, 2321.241575)"><g><path d="M 13.921875 -158.09375 L 44.859375 -158.09375 L 44.859375 -155.703125 C 42.785156 -155.703125 41.1875 -154.222656 40.0625 -151.265625 C 38.945312 -148.304688 38.304688 -145.625 38.140625 -143.21875 L 31.90625 -27.34375 L 29.03125 -27.34375 L 21.828125 -143.21875 C 21.828125 -144.34375 21.625 -145.625 21.21875 -147.0625 C 20.820312 -148.5 20.304688 -149.859375 19.671875 -151.140625 C 19.035156 -152.421875 18.234375 -153.5 17.265625 -154.375 C 16.304688 -155.257812 15.191406 -155.703125 13.921875 -155.703125 Z M 19.1875 -9.109375 C 19.1875 -12.316406 20.265625 -15.035156 22.421875 -17.265625 C 24.585938 -19.503906 27.269531 -20.625 30.46875 -20.625 C 33.664062 -20.625 36.34375 -19.503906 38.5 -17.265625 C 40.664062 -15.035156 41.75 -12.316406 41.75 -9.109375 C 41.75 -5.910156 40.664062 -3.234375 38.5 -1.078125 C 36.34375 1.078125 33.664062 2.15625 30.46875 2.15625 C 27.269531 2.15625 24.585938 1.078125 22.421875 -1.078125 C 20.265625 -3.234375 19.1875 -5.910156 19.1875 -9.109375 Z M 19.1875 -9.109375 "/></g></g></g></svg>